<svg xmlns:dc="http://purl.org/dc/elements/1.1/" xmlns:cc="http://creativecommons.org/ns#" xmlns:rdf="http://www.w3.org/1999/02/22-rdf-syntax-ns#" xmlns:svg="http://www.w3.org/2000/svg" xmlns="http://www.w3.org/2000/svg" xmlns:sodipodi="http://sodipodi.sourceforge.net/DTD/sodipodi-0.dtd" xmlns:inkscape="http://www.inkscape.org/namespaces/inkscape" version="1.1" id="svg2521" xml:space="preserve" width="346.51550138591193" height="288.5873780539206" viewBox="0 0 329.13253 274.0672" sodipodi:docname="ColourAndStle.pdf" inkscape:version="0.92.2 (5c3e80d, 2017-08-06)"><metadata id="metadata2527"><rdf:RDF><cc:Work rdf:about=""><dc:format>image/svg+xml</dc:format><dc:type rdf:resource="http://purl.org/dc/dcmitype/StillImage"/><dc:title/></cc:Work></rdf:RDF></metadata><defs id="defs2525"/><sodipodi:namedview pagecolor="#ffffff" bordercolor="#666666" borderopacity="1" objecttolerance="10" gridtolerance="10" guidetolerance="10" inkscape:pageopacity="0" inkscape:pageshadow="2" inkscape:window-width="640" inkscape:window-height="480" id="namedview2523" showgrid="false" inkscape:zoom="0.2236041" inkscape:cx="369.99994" inkscape:cy="61.876243" inkscape:window-x="147" inkscape:window-y="63" inkscape:window-maximized="0" inkscape:current-layer="g2531" fit-margin-top="0" fit-margin-left="0" fit-margin-right="0" fit-margin-bottom="0"/><g id="g2529" inkscape:groupmode="layer" inkscape:label="ColourAndStle" transform="matrix(1.3333333,0,0,1.3333333,-26.850434,-281.65695)"><g id="g2531"><path d="m 1767,111 h 595.277 V 952.891 H 1767 Z" style="fill:#e9e9e9;fill-opacity:1;fill-rule:nonzero;stroke:none" id="path2533" inkscape:connector-curvature="0"/><path inkscape:connector-curvature="0" id="path5684" style="fill:#1d1d1b;fill-opacity:1;fill-rule:nonzero;stroke:none;stroke-width:1.72777832" d="m 55.30848,389.37839 c -0.0622,0.0673 -0.169323,0.14167 -0.324822,0.21597 -0.155501,0.0673 -0.364562,0.10887 -0.634096,0.10887 -0.236705,0 -0.466499,-0.0484 -0.694566,-0.13476 -0.222884,-0.0882 -0.426761,-0.20907 -0.601267,-0.36457 -0.176233,-0.15549 -0.317912,-0.33864 -0.418122,-0.5477 -0.101943,-0.20906 -0.155501,-0.43886 -0.155501,-0.68766 0,-0.33692 0.107118,-0.60127 0.330006,-0.78268 0.222884,-0.17623 0.466501,-0.27126 0.736033,-0.27126 h 0.108856 v -2.81974 c 0,-0.60127 -0.229794,-0.90536 -0.696295,-0.90536 -0.234977,0 -0.425033,0.0673 -0.573622,0.20215 -0.141677,0.13651 -0.215972,0.33866 -0.215972,0.6151 0,0.27645 0.07429,0.49932 0.215972,0.68766 0.148589,0.19004 0.30409,0.33173 0.480322,0.42503 l -0.851794,0.97965 c -0.153773,-0.0742 -0.309272,-0.16932 -0.478595,-0.30409 -0.162411,-0.12785 -0.311,-0.28336 -0.438855,-0.47168 -0.127855,-0.18315 -0.236706,-0.39221 -0.316184,-0.62891 -0.0812,-0.23499 -0.129583,-0.49242 -0.129583,-0.76887 0,-0.30409 0.06048,-0.57361 0.176233,-0.82415 0.107118,-0.2488 0.269534,-0.46476 0.478595,-0.6531 0.20215,-0.18315 0.445767,-0.33173 0.736033,-0.43195 0.283356,-0.10887 0.587444,-0.16241 0.91745,-0.16241 0.749857,0 1.330389,0.20215 1.741601,0.60646 0.4043,0.39911 0.608178,0.97274 0.608178,1.71568 v 2.73853 h 2.36878 v -3.7441 h -1.404682 v -1.29584 h 4.393743 v 1.29584 h -1.316573 v 8.54387 h -1.672488 v -3.4832 h -2.36878 z"/><path inkscape:connector-curvature="0" id="path5686" style="fill:#1d1d1b;fill-opacity:1;fill-rule:nonzero;stroke:none;stroke-width:1.72777832" d="m 61.671888,383.17048 h -1.314839 v -1.29584 h 4.298712 v 1.29584 h -1.31657 v 8.54387 h -1.667303 z"/><path inkscape:connector-curvature="0" id="path5688" style="fill:#1d1d1b;fill-opacity:1;fill-rule:nonzero;stroke:none;stroke-width:1.72777832" d="m 69.716423,391.08025 -1.484163,0.89671 -2.881934,-4.33326 c -0.174506,-0.2488 -0.297179,-0.45096 -0.364564,-0.62027 -0.06738,-0.16242 -0.100205,-0.31792 -0.100205,-0.4665 0,-0.2419 0.100205,-0.43714 0.302357,-0.58573 0.203882,-0.14167 0.466502,-0.21596 0.784415,-0.21596 l 0.295451,0.36974 c 0.215966,0.29027 0.480323,0.43195 0.78268,0.43195 0.345558,0 0.628912,-0.12101 0.851791,-0.37666 0.2298,-0.25052 0.343835,-0.62892 0.343835,-1.12133 0,-0.43195 -0.06738,-0.81033 -0.20215,-1.1196 -0.134771,-0.31791 -0.271263,-0.57363 -0.418125,-0.76886 h -3.281052 v -1.29584 h 6.762523 v 1.29584 H 69.31212 c 0.134769,0.17451 0.276449,0.43712 0.418124,0.78268 0.141676,0.34383 0.215975,0.76195 0.215975,1.24746 0,0.43194 -0.0743,0.81723 -0.215975,1.15415 -0.141675,0.33174 -0.330001,0.61509 -0.566713,0.83797 -0.229795,0.22807 -0.499325,0.40431 -0.803415,0.51834 -0.30236,0.12266 -0.60645,0.18314 -0.917448,0.18314 h -0.155504 z"/><path inkscape:connector-curvature="0" id="path5690" style="fill:#1d1d1b;fill-opacity:1;fill-rule:nonzero;stroke:none;stroke-width:1.72777832" d="m 74.400429,386.43598 c -0.55289,0 -0.95719,0.14167 -1.214628,0.41813 -0.248801,0.27644 -0.376656,0.64791 -0.376656,1.1144 0,0.55981 0.114031,1.10579 0.343825,1.63966 0.22289,0.53389 0.532161,1.10751 0.924363,1.70014 l -1.472066,0.64792 c -0.41121,-0.58571 -0.76195,-1.22153 -1.059128,-1.9092 -0.29027,-0.68247 -0.438859,-1.40987 -0.438859,-2.18736 0,-0.93127 0.262621,-1.62585 0.796508,-2.09235 0.533883,-0.45786 1.242272,-0.69456 2.126896,-0.69456 h 2.401611 v -1.90228 h -6.100784 v -1.29584 h 9.084657 v 1.29584 h -1.316567 v 8.54387 h -1.667306 v -5.27837 z"/><path inkscape:connector-curvature="0" id="path5692" style="fill:#1d1d1b;fill-opacity:1;fill-rule:nonzero;stroke:none;stroke-width:1.72777832" d="M 80.421732,383.17048 H 79.10517 v -1.29584 h 1.174887 c -0.0812,-0.27126 -0.176234,-0.54771 -0.290265,-0.83797 -0.115769,-0.29027 -0.250528,-0.55289 -0.412942,-0.78959 -0.160682,-0.2367 -0.343825,-0.43195 -0.552886,-0.58745 -0.215974,-0.15549 -0.45786,-0.2298 -0.736033,-0.2298 -0.309275,0 -0.552889,0.0882 -0.727395,0.27127 -0.176233,0.17451 -0.264353,0.43886 -0.264353,0.78268 0,0.29717 0.04838,0.57363 0.14168,0.82934 0.08812,0.25744 0.209065,0.49932 0.35074,0.7153 l -1.161068,0.66173 -0.228067,-0.27644 c -0.209064,-0.27645 -0.385293,-0.59435 -0.526973,-0.95201 -0.141674,-0.35764 -0.215975,-0.72911 -0.215975,-1.11959 0,-0.33173 0.06048,-0.6341 0.176235,-0.91228 0.120943,-0.28335 0.288541,-0.51832 0.511425,-0.72221 0.22288,-0.20215 0.487233,-0.35764 0.796504,-0.47169 0.310998,-0.11398 0.661738,-0.1693 1.053946,-0.1693 0.566709,0 1.059129,0.12266 1.470339,0.37146 0.412937,0.24362 0.756763,0.5598 1.040121,0.93819 0.283355,0.37147 0.52006,0.78268 0.701481,1.22844 0.176232,0.44577 0.317907,0.86389 0.404299,1.26992 h 1.599922 v 1.29584 h -1.314839 v 8.54387 h -1.674221 z"/><path inkscape:connector-curvature="0" id="path5694" style="fill:#1d1d1b;fill-opacity:1;fill-rule:nonzero;stroke:none;stroke-width:1.72777832" d="m 89.53231,387.67134 v -4.50086 h -2.301401 c 0.141675,0.16759 0.269536,0.36974 0.385294,0.62027 0.114031,0.2488 0.167596,0.52697 0.167596,0.83624 0,0.68939 -0.214242,1.22154 -0.653101,1.59301 -0.438854,0.37148 -1.000381,0.58054 -1.681126,0.63411 0.05356,0.42502 0.26262,0.78959 0.641004,1.09368 0.378384,0.30408 0.891533,0.45267 1.53945,0.45267 0.464772,0 0.863889,-0.0742 1.193895,-0.22288 0.330006,-0.14859 0.566709,-0.31791 0.708389,-0.50624 m 1.674216,-4.50086 v 8.54387 H 89.53231 v -2.47764 c -0.14168,0.11576 -0.378383,0.22978 -0.701479,0.35074 -0.324819,0.11577 -0.749858,0.17623 -1.275099,0.17623 -0.473413,0 -0.945097,-0.0742 -1.404685,-0.2298 -0.457857,-0.14859 -0.863889,-0.38529 -1.228449,-0.70147 -0.357648,-0.32483 -0.654828,-0.74295 -0.870803,-1.24919 -0.222879,-0.50624 -0.336915,-1.11268 -0.336915,-1.82107 h 0.371475 c 0.694565,0 1.200803,-0.10197 1.518716,-0.311 0.316185,-0.20906 0.47859,-0.54771 0.47859,-1.01248 0,-0.25053 -0.05357,-0.48551 -0.162405,-0.69456 -0.10713,-0.21598 -0.234981,-0.40604 -0.376655,-0.57363 H 83.10152 v -1.29584 h 9.421577 v 1.29584 z"/><path inkscape:connector-curvature="0" id="path5696" style="fill:#1d1d1b;fill-opacity:1;fill-rule:nonzero;stroke:none;stroke-width:1.72777832" d="m 98.340522,386.05069 c 0,0.49414 0.120943,0.84488 0.364564,1.05394 0.236704,0.20215 0.55289,0.31101 0.945092,0.31101 0.330011,0 0.620272,-0.0622 0.870802,-0.18316 0.2488,-0.11398 0.44404,-0.26262 0.59954,-0.43885 v -3.62315 h -2.779998 z m 5.770778,-2.88021 h -1.31657 v 8.54387 h -1.67421 v -3.32771 l -3.448646,3.63697 -1.409868,-1.19388 2.631406,-2.10618 c -0.316186,-0.0397 -0.61336,-0.121 -0.884623,-0.24188 -0.262625,-0.12786 -0.499329,-0.29027 -0.701479,-0.49933 -0.20215,-0.20387 -0.357649,-0.45959 -0.471685,-0.76368 -0.115756,-0.30409 -0.169319,-0.65483 -0.169319,-1.0453 v -3.00288 h -0.931268 v -1.29584 h 8.376262 z"/><path inkscape:connector-curvature="0" id="path5698" style="fill:#1d1d1b;fill-opacity:1;fill-rule:nonzero;stroke:none;stroke-width:1.72777832" d="m 106.5682,381.87464 h 1.53081 v 1.29584 h -1.31483 v 8.54387 h -1.66731 v -8.54387 h -1.31657 v -1.29584 h 1.11442 l -0.4665,-0.35937 c -0.18142,-0.14169 -0.35074,-0.26263 -0.49933,-0.35766 -0.1555,-0.0864 -0.29718,-0.16068 -0.44577,-0.21597 -0.14167,-0.0466 -0.29026,-0.0864 -0.43885,-0.10708 -0.14859,-0.0207 -0.30927,-0.0276 -0.48551,-0.0276 -0.18832,0 -0.37147,0.0207 -0.55289,0.0673 -0.17623,0.0484 -0.33173,0.0951 -0.45267,0.14858 l -0.4043,-1.19391 c 0.15377,-0.0813 0.35765,-0.15549 0.59263,-0.21596 0.24361,-0.0604 0.49414,-0.0951 0.73603,-0.0951 0.47859,0 0.90536,0.10887 1.28892,0.31791 0.37839,0.21598 0.76368,0.54597 1.15416,0.99866 l 0.622,0.69456 h 0.0605 l -0.45959,-1.09368 c -0.26953,-0.6531 -0.58744,-1.1127 -0.94509,-1.37531 -0.36456,-0.27127 -0.81551,-0.40604 -1.36322,-0.40604 -0.12094,0 -0.25571,0.006 -0.39048,0.0207 -0.14167,0.0207 -0.26434,0.0328 -0.36456,0.0535 l -0.17623,-1.34248 c 0.12786,-0.0345 0.28335,-0.0604 0.47341,-0.0882 0.19524,-0.0207 0.35765,-0.0328 0.50451,-0.0328 0.86389,0 1.53945,0.20906 2.02496,0.64101 0.48723,0.42502 0.85179,1.08677 1.10059,1.98349 z"/><path inkscape:connector-curvature="0" id="path5700" style="fill:#1d1d1b;fill-opacity:1;fill-rule:nonzero;stroke:none;stroke-width:1.72777832" d="m 113.22188,383.17048 v 2.40161 h -2.11826 c -0.29718,0 -0.53388,0.0535 -0.70321,0.17623 -0.1745,0.12101 -0.25571,0.29718 -0.25571,0.53216 0,0.27126 0.0881,0.4665 0.27645,0.59435 0.18314,0.13477 0.41121,0.19524 0.68247,0.19524 h 1.99731 v 1.24227 h -1.72086 c -0.70321,0 -1.05395,0.24362 -1.05395,0.73604 0,0.37839 0.16241,0.6341 0.47341,0.78959 0.31619,0.1555 0.76886,0.23672 1.35631,0.23672 0.55289,0 1.0453,-0.0951 1.45824,-0.27127 0.41813,-0.18142 0.75504,-0.42503 1.01939,-0.72221 v -5.91073 z m 1.42369,7.50374 c -0.26954,0.20906 -0.62719,0.38529 -1.06604,0.53388 -0.44577,0.14859 -0.95719,0.22979 -1.55154,0.22979 -0.51316,0 -0.97966,-0.0553 -1.39778,-0.15549 -0.41813,-0.10887 -0.78268,-0.25744 -1.07986,-0.4596 -0.311,-0.20215 -0.53907,-0.44576 -0.70839,-0.74121 -0.16241,-0.29718 -0.24362,-0.63582 -0.24362,-1.03321 0,-0.35765 0.0812,-0.65483 0.24362,-0.89153 0.16932,-0.2419 0.39221,-0.42504 0.68247,-0.5598 -0.11575,-0.0397 -0.2367,-0.10197 -0.36456,-0.18834 -0.12958,-0.0811 -0.25052,-0.18313 -0.35765,-0.30408 -0.10884,-0.12785 -0.19697,-0.26954 -0.26435,-0.44577 -0.0674,-0.16932 -0.0933,-0.36456 -0.0933,-0.58053 0,-0.31101 0.0536,-0.57362 0.16761,-0.79651 0.11575,-0.22288 0.26434,-0.4043 0.45267,-0.54597 0.19524,-0.14169 0.41812,-0.25054 0.66865,-0.31792 0.2488,-0.0673 0.51833,-0.10018 0.79651,-0.10018 h 1.05221 v -1.14725 h -3.79247 v -1.29584 h 9.90017 v 1.29584 h -1.30965 v 8.69937 h -1.73469 z"/><path inkscape:connector-curvature="0" id="path5702" style="fill:#1d1d1b;fill-opacity:1;fill-rule:nonzero;stroke:none;stroke-width:1.72777832" d="m 114.13242,378.23593 c 0.19005,-0.10196 0.41985,-0.18141 0.7032,-0.24878 0.29027,-0.0622 0.58054,-0.0882 0.87771,-0.0882 0.79651,0 1.45652,0.19523 1.97658,0.59953 0.52697,0.40603 0.97274,0.9451 1.3373,1.62757 l 0.92436,1.7485 h 1.73469 v 1.29585 h -1.31656 v 8.54387 h -1.67422 v -8.54387 h -1.30965 v -1.29585 h 1.24918 l -0.58745,-0.8846 c -0.33,-0.50626 -0.65482,-0.88463 -0.97792,-1.12825 -0.33173,-0.2488 -0.74294,-0.36974 -1.24919,-0.36974 -0.20906,0 -0.41121,0.019 -0.60644,0.0673 -0.20388,0.0466 -0.3853,0.10017 -0.5408,0.16068 z"/><path inkscape:connector-curvature="0" id="path5704" style="fill:#1d1d1b;fill-opacity:1;fill-rule:nonzero;stroke:none;stroke-width:1.72777832" d="m 122.69183,383.17048 h -1.31656 v -1.29584 h 1.20771 c -0.0604,-0.10197 -0.11398,-0.2367 -0.16241,-0.3922 -0.0466,-0.1486 -0.0744,-0.33002 -0.0744,-0.5408 0,-0.39047 0.10197,-0.74813 0.29719,-1.06603 0.19696,-0.3162 0.4734,-0.58745 0.82415,-0.81033 0.34383,-0.22115 0.76195,-0.39049 1.24919,-0.51143 0.4855,-0.12267 1.01074,-0.17622 1.57918,-0.17622 0.84315,0 1.61893,0.10197 2.32732,0.3179 0.70839,0.20906 1.34939,0.4855 1.92302,0.82242 0.58052,0.34383 1.08676,0.72913 1.52562,1.15416 0.43886,0.43195 0.81033,0.85698 1.10751,1.29583 l 0.10708,0.16932 -1.12652,0.69458 -0.22979,-0.27644 c -0.29027,-0.34385 -0.62027,-0.68076 -0.99175,-1.01249 -0.37147,-0.33692 -0.78959,-0.63409 -1.24918,-0.89671 -0.45786,-0.26435 -0.95719,-0.48033 -1.49799,-0.64792 -0.53907,-0.16241 -1.12651,-0.24362 -1.75369,-0.24362 -0.7775,0 -1.36322,0.14167 -1.76924,0.43195 -0.3974,0.29027 -0.60127,0.66173 -0.60127,1.11268 0,0.12267 0.006,0.2298 0.0138,0.31101 0.0138,0.0813 0.0415,0.16932 0.0811,0.26434 h 1.51182 v 1.29584 h -1.30967 v 8.54387 h -1.67249 z"/><path inkscape:connector-curvature="0" id="path5706" style="fill:#1d1d1b;fill-opacity:1;fill-rule:nonzero;stroke:none;stroke-width:1.72777832" d="m 127.7525,386.90247 c 0.10887,-0.10197 0.20906,-0.27644 0.29718,-0.51314 0.0882,-0.23671 0.13475,-0.52006 0.13475,-0.85007 0,-0.48723 -0.0864,-0.92608 -0.25571,-1.32348 -0.16931,-0.39912 -0.39221,-0.74294 -0.66174,-1.0453 h -1.89709 v -1.29584 h 9.29372 v 1.29584 h -1.31485 v 8.54387 h -1.6673 v -8.54387 h -2.67979 c 0.19524,0.21425 0.39221,0.55289 0.58745,1.00556 0.19523,0.45786 0.29718,1.00557 0.29718,1.63966 0,0.48552 -0.0673,0.91746 -0.19696,1.29583 -0.12786,0.37838 -0.29546,0.69458 -0.50626,0.95201 -0.21596,0.25572 -0.45784,0.45095 -0.7412,0.58572 -0.28336,0.1365 -0.58054,0.20388 -0.89154,0.20388 -0.45959,0 -0.84315,-0.14167 -1.16106,-0.41294 -0.3231,-0.27645 -0.47859,-0.63409 -0.47859,-1.07295 0,-0.34382 0.10197,-0.60645 0.31618,-0.79651 0.21078,-0.19523 0.45267,-0.29026 0.71702,-0.29026 z"/><path inkscape:connector-curvature="0" id="path5708" style="fill:#1d1d1b;fill-opacity:1;fill-rule:nonzero;stroke:none;stroke-width:1.72777832" d="m 139.61714,386.40315 c -0.1745,-0.18315 -0.37665,-0.32482 -0.60645,-0.43195 -0.22288,-0.10197 -0.4786,-0.1555 -0.76886,-0.1555 -0.41293,0 -0.76368,0.12101 -1.05394,0.36457 -0.29027,0.24189 -0.43195,0.60645 -0.43195,1.09196 0,0.48722 0.12786,0.85871 0.39221,1.12132 0.26262,0.26263 0.61337,0.39221 1.0453,0.39221 0.18315,0 0.36457,-0.0276 0.53389,-0.0813 0.16932,-0.0622 0.31618,-0.14168 0.44576,-0.25744 0.13477,-0.11398 0.23499,-0.26263 0.31619,-0.44577 0.0882,-0.18833 0.12785,-0.4043 0.12785,-0.65482 z m 1.62066,5.3112 h -1.63275 v -2.16664 c -0.13477,0.1745 -0.35074,0.31618 -0.63409,0.43195 -0.29027,0.11398 -0.622,0.16931 -0.99347,0.16931 -0.39048,0 -0.76196,-0.0622 -1.11269,-0.19005 -0.35075,-0.12786 -0.66175,-0.32309 -0.93128,-0.57363 -0.27126,-0.2557 -0.48032,-0.55979 -0.64101,-0.93126 -0.1624,-0.36457 -0.2367,-0.78961 -0.2367,-1.27511 0,-0.44576 0.0742,-0.83797 0.22288,-1.17488 0.14859,-0.34383 0.35074,-0.62719 0.59954,-0.85007 0.25744,-0.2298 0.54771,-0.39912 0.88462,-0.51315 0.33692,-0.11398 0.68939,-0.16932 1.05913,-0.16932 0.35247,0 0.68248,0.0553 1.00038,0.1624 0.30928,0.10887 0.57363,0.26435 0.78269,0.47342 v -1.93684 h -5.25072 v -1.29584 h 12.32943 v 1.29584 h -5.44596 v 2.05778 c 0.16932,-0.22287 0.41121,-0.4043 0.73604,-0.5477 0.33,-0.14169 0.70147,-0.20906 1.1265,-0.20906 0.37839,0 0.73604,0.0622 1.06605,0.18314 0.33173,0.11398 0.62199,0.29027 0.86388,0.52005 0.25053,0.22808 0.44577,0.51317 0.58744,0.85699 0.1486,0.33691 0.21598,0.72221 0.21598,1.14724 0,0.4786 -0.0742,0.89671 -0.2367,1.26128 -0.16069,0.35764 -0.37666,0.65482 -0.64792,0.89154 -0.27646,0.23671 -0.59264,0.40429 -0.95028,0.52006 -0.36456,0.11398 -0.74985,0.1745 -1.16106,0.1745 -0.11577,0 -0.25745,-0.006 -0.41813,-0.0328 -0.16932,-0.0207 -0.29027,-0.0414 -0.37147,-0.0604 l 0.18142,-1.31657 c 0.15549,0.0328 0.3179,0.0466 0.48031,0.0466 0.38357,0 0.71531,-0.12101 0.99867,-0.36456 0.28335,-0.24189 0.42503,-0.61337 0.42503,-1.11961 0,-0.43193 -0.12267,-0.77059 -0.36457,-1.00556 -0.24361,-0.2367 -0.58053,-0.35766 -1.01246,-0.35766 -0.49243,0 -0.87081,0.15551 -1.12652,0.45786 -0.25744,0.29718 -0.39221,0.71013 -0.39221,1.23538 z"/><path inkscape:connector-curvature="0" id="path5710" style="fill:#1d1d1b;fill-opacity:1;fill-rule:nonzero;stroke:none;stroke-width:1.72777832" d="m 147.41288,383.17048 h -1.23536 v -1.29584 h 0.95891 c -0.14167,-0.25743 -0.33691,-0.53388 -0.58053,-0.82415 -0.24189,-0.28335 -0.53215,-0.54598 -0.86388,-0.78959 -0.33692,-0.2367 -0.7153,-0.43195 -1.14034,-0.59435 -0.42503,-0.16241 -0.88462,-0.23672 -1.39086,-0.23672 -0.41122,0 -0.76195,0.0484 -1.04531,0.14169 -0.28336,0.10196 -0.51314,0.22978 -0.69629,0.3922 -0.18142,0.1555 -0.30928,0.34382 -0.3974,0.55979 -0.0813,0.22289 -0.121,0.43887 -0.121,0.66866 0,0.33001 0.0535,0.59436 0.1555,0.7896 l -1.26992,0.38529 -0.1555,-0.20387 c -0.14167,-0.16069 -0.25571,-0.35766 -0.33692,-0.57881 -0.0882,-0.21598 -0.12785,-0.44577 -0.12785,-0.68938 0,-0.37839 0.0882,-0.74295 0.25571,-1.08678 0.16932,-0.34382 0.41812,-0.65483 0.74294,-0.91054 0.3231,-0.26435 0.72914,-0.47341 1.21464,-0.62199 0.4855,-0.14687 1.04011,-0.22117 1.65348,-0.22117 0.81032,0 1.52562,0.12786 2.15973,0.38357 0.63408,0.25744 1.19388,0.57362 1.67421,0.95892 0.4786,0.38529 0.87771,0.7965 1.2008,1.23536 0.31792,0.44577 0.55289,0.85698 0.7084,1.24227 h 1.54635 v 1.29584 h -1.23536 v 8.54387 h -1.67421 z"/><path inkscape:connector-curvature="0" id="path5712" style="fill:#1d1d1b;fill-opacity:1;fill-rule:nonzero;stroke:none;stroke-width:1.72777832" d="m 159.76476,386.7798 c 0.3974,0 0.74123,-0.0466 1.02458,-0.14167 0.28336,-0.0933 0.52006,-0.21597 0.70321,-0.35765 v -3.11 h -3.01671 c 0.13476,0.17451 0.27646,0.43712 0.41813,0.78268 0.14168,0.34383 0.21597,0.76195 0.21597,1.24746 0,0.5477 -0.11577,1.01938 -0.33864,1.42541 0.29717,0.10018 0.6289,0.14686 0.99346,0.14686 m -0.88462,4.30736 -1.48415,0.89671 -2.89577,-4.30562 c -0.1624,-0.24362 -0.28335,-0.44576 -0.35765,-0.60817 -0.0673,-0.1607 -0.10887,-0.30928 -0.10887,-0.45788 0,-0.25743 0.10887,-0.45267 0.311,-0.59434 0.20906,-0.14168 0.47169,-0.20906 0.78959,-0.20906 l 0.27644,0.37147 c 0.11577,0.14167 0.23672,0.2488 0.35766,0.32309 0.12101,0.0742 0.27644,0.10887 0.45269,0.10887 0.32999,0 0.60644,-0.13476 0.84314,-0.39911 0.2298,-0.26954 0.34383,-0.65483 0.34383,-1.14725 0,-0.43194 -0.0673,-0.81033 -0.20215,-1.11959 -0.12785,-0.31792 -0.26954,-0.57363 -0.41812,-0.76887 h -3.24649 v -1.29584 h 10.94029 v 1.29584 h -1.31657 v 8.54387 h -1.67249 v -3.78038 c -0.16242,0.0882 -0.37148,0.14858 -0.61509,0.19006 -0.2488,0.0397 -0.55289,0.0604 -0.91745,0.0604 -0.35765,0 -0.72912,-0.0535 -1.11442,-0.16932 -0.37666,-0.11398 -0.70147,-0.25572 -0.97101,-0.43195 -0.3922,0.23671 -0.81724,0.35074 -1.26819,0.35074 -0.0622,0 -0.11577,0 -0.1555,-0.0115 z"/><path inkscape:connector-curvature="0" id="path5714" style="fill:#1d1d1b;fill-opacity:1;fill-rule:nonzero;stroke:none;stroke-width:1.72777832" d="m 161.28866,379.65963 c 0,-0.2488 0.10197,-0.4786 0.29718,-0.68766 0.19698,-0.20906 0.44578,-0.3179 0.74295,-0.3179 0.31099,0 0.5598,0.10887 0.74294,0.3179 0.18834,0.20906 0.27645,0.43886 0.27645,0.68766 0,0.27644 -0.0951,0.52005 -0.28336,0.72222 -0.19005,0.19696 -0.43885,0.29717 -0.73603,0.29717 -0.29717,0 -0.54597,-0.10018 -0.74295,-0.29717 -0.19523,-0.20217 -0.29718,-0.44578 -0.29718,-0.72222"/><path inkscape:connector-curvature="0" id="path5716" style="fill:#1d1d1b;fill-opacity:1;fill-rule:nonzero;stroke:none;stroke-width:1.72777832" d="m 171.59486,386.34095 c 1.03322,-0.0864 1.8159,-0.31619 2.34979,-0.68074 0.52524,-0.37148 0.7965,-0.85007 0.7965,-1.44443 0,-0.35074 -0.0882,-0.60127 -0.25744,-0.76886 -0.16759,-0.16241 -0.38357,-0.24362 -0.64101,-0.24362 -0.26952,0 -0.4786,0.0811 -0.62718,0.23672 -0.14858,0.15549 -0.2298,0.35073 -0.2298,0.59953 0,0.19006 0.0466,0.35247 0.13477,0.48724 0.0882,0.13475 0.18832,0.2488 0.30409,0.33 l -1.06604,0.64792 c -0.20906,-0.11398 -0.41293,-0.311 -0.60818,-0.58054 -0.19524,-0.26263 -0.29027,-0.60645 -0.29027,-1.0263 0,-0.29546 0.0535,-0.57362 0.17624,-0.81551 0.12088,-0.25052 0.28335,-0.4665 0.49932,-0.64101 0.22289,-0.18313 0.47169,-0.32481 0.76887,-0.42503 0.29718,-0.10887 0.62199,-0.16241 0.98484,-0.16241 0.3922,0 0.74294,0.0673 1.05394,0.18832 0.31618,0.12786 0.58744,0.30409 0.81033,0.53389 0.22116,0.22289 0.39047,0.49241 0.50624,0.78959 0.12101,0.30409 0.18141,0.62719 0.18141,0.9641 0,0.40604 -0.0811,0.78269 -0.2367,1.12825 -0.15551,0.34383 -0.37147,0.66173 -0.66174,0.93817 -0.28854,0.27645 -0.64792,0.50624 -1.07295,0.69458 -0.43195,0.18142 -0.91054,0.311 -1.44962,0.38529 0.0795,0.29718 0.28854,0.57362 0.62719,0.81551 0.33693,0.25053 0.82934,0.37147 1.47726,0.37147 0.52697,0 0.99865,-0.0813 1.43059,-0.25571 0.42677,-0.16932 0.74295,-0.38529 0.95201,-0.65483 v -5.8779 h 2.98388 v 1.29584 h -1.30967 v 8.54387 h -1.67421 v -2.30832 c -0.17451,0.14859 -0.47169,0.29026 -0.88981,0.43194 -0.41985,0.1486 -0.91917,0.21598 -1.49279,0.21598 -0.83626,0 -1.56537,-0.16932 -2.17874,-0.50624 -0.62199,-0.34383 -1.08677,-0.82416 -1.39777,-1.45825 -0.30408,0.0882 -0.65482,0.12785 -1.03322,0.12785 -0.39047,0 -0.76194,-0.0604 -1.11268,-0.16759 -0.35073,-0.11577 -0.66173,-0.27125 -0.93127,-0.4665 -0.37838,0.20215 -0.78959,0.311 -1.23537,0.311 h -0.15549 l 2.59858,3.12383 -1.48416,0.97274 -3.06509,-4.37992 c -0.1624,-0.23671 -0.27644,-0.42503 -0.33,-0.57363 -0.0604,-0.14167 -0.0882,-0.28335 -0.0882,-0.43195 0,-0.25743 0.10197,-0.45267 0.30409,-0.59434 0.20215,-0.14168 0.45095,-0.20906 0.74813,-0.20906 l 0.27645,0.37147 c 0.19696,0.2557 0.4665,0.38357 0.81033,0.38357 0.32482,0 0.60817,-0.12101 0.83797,-0.37666 0.23497,-0.25052 0.35073,-0.62892 0.35073,-1.12133 0,-0.41121 -0.0604,-0.77577 -0.17624,-1.09887 -0.121,-0.31791 -0.24878,-0.58053 -0.39738,-0.78959 h -3.29487 v -1.29584 h 6.34439 v 1.29584 h -1.4375 c 0.14167,0.17451 0.29027,0.44403 0.43885,0.79478 0.1486,0.35765 0.22289,0.77059 0.22289,1.23536 0,0.28335 -0.0276,0.5477 -0.0951,0.77577 -0.0604,0.23671 -0.14858,0.45267 -0.26261,0.66174 0.13475,0.0553 0.29717,0.0951 0.47858,0.12958 0.19006,0.0397 0.3853,0.0535 0.59436,0.0535 0.12101,0 0.24362,-0.006 0.37147,-0.0207 0.12101,-0.0138 0.24362,-0.0466 0.35074,-0.088 0,-0.0466 0,-0.10018 -0.006,-0.16069 -0.006,-0.0622 -0.006,-0.12267 -0.006,-0.17624 z"/><path inkscape:connector-curvature="0" id="path5718" style="fill:#1d1d1b;fill-opacity:1;fill-rule:nonzero;stroke:none;stroke-width:1.72777832" d="m 181.49676,383.17048 h -1.30965 v -1.29584 h 4.29871 v 1.29584 h -1.31484 v 8.54387 h -1.67422 z"/><path inkscape:connector-curvature="0" id="path5720" style="fill:#1d1d1b;fill-opacity:1;fill-rule:nonzero;stroke:none;stroke-width:1.72777832" d="m 189.8713,385.80189 v -2.63141 h -5.69476 v -1.29584 h 8.67864 v 1.29584 h -1.31657 v 8.54387 h -1.66731 v -4.56308 h -2.72643 l 0.0811,1.30967 c -0.0397,0.0535 -0.14168,0.11398 -0.29026,0.18141 -0.1486,0.0691 -0.3231,0.10197 -0.53216,0.10197 -0.47341,0 -0.85698,-0.16242 -1.16107,-0.4786 -0.29718,-0.32482 -0.44576,-0.72911 -0.44576,-1.22845 0,-0.37147 0.10708,-0.66865 0.32999,-0.89845 0.22289,-0.22287 0.56672,-0.3369 1.03322,-0.3369 z"/><path inkscape:connector-curvature="0" id="path5722" style="fill:#1d1d1b;fill-opacity:1;fill-rule:nonzero;stroke:none;stroke-width:1.72777832" d="m 203.0197,381.87464 h 2.98905 v 1.29584 h -1.31484 v 8.54387 h -1.67421 v -1.90403 c -0.17624,0.13477 -0.49242,0.27127 -0.952,0.39912 -0.4596,0.13477 -0.99867,0.20215 -1.61376,0.20215 -1.05221,0 -1.88155,-0.22287 -2.48281,-0.66173 -0.60818,-0.44576 -0.90536,-1.04531 -0.90536,-1.8159 0,-0.41812 0.12959,-0.77576 0.39221,-1.05913 0.26261,-0.28335 0.58744,-0.47168 0.96583,-0.58053 -0.20389,-0.0744 -0.40604,-0.18142 -0.60127,-0.311 -0.19525,-0.12786 -0.37147,-0.29027 -0.52007,-0.47169 -0.14858,-0.18832 -0.26952,-0.39911 -0.36455,-0.63409 -0.0864,-0.22979 -0.13477,-0.49933 -0.13477,-0.80342 0,-0.30409 0.0535,-0.59436 0.16932,-0.86388 0.11398,-0.27645 0.27645,-0.50624 0.49241,-0.70839 0.21598,-0.20215 0.4786,-0.35766 0.78961,-0.47341 0.31099,-0.11398 0.66173,-0.1676 1.05221,-0.1676 0.40602,0 0.75677,0.0535 1.06086,0.1745 0.30235,0.12267 0.55979,0.27645 0.76885,0.46651 0.20216,0.19524 0.35766,0.41811 0.4596,0.66173 0.10708,0.24881 0.15377,0.49933 0.15377,0.74122 0,0.31791 -0.0673,0.59435 -0.20906,0.83107 -0.13477,0.2298 -0.27644,0.39738 -0.42504,0.50624 l -1.22153,-0.50624 c 0.0951,-0.0882 0.17623,-0.19698 0.24361,-0.32483 0.0604,-0.13477 0.10018,-0.28336 0.10018,-0.44576 0,-0.23498 -0.0742,-0.42504 -0.21598,-0.56672 -0.14687,-0.14167 -0.35074,-0.20906 -0.62027,-0.20906 -0.23671,0 -0.44577,0.0813 -0.62718,0.25744 -0.18316,0.16759 -0.26954,0.42503 -0.26954,0.76886 0,0.52007 0.19524,0.93128 0.58572,1.22154 0.39221,0.29718 0.89845,0.44577 1.51872,0.44577 h 0.85007 v 1.30965 h -1.4237 c -0.41121,0 -0.72222,0.0795 -0.93126,0.22807 -0.20216,0.14858 -0.31101,0.33864 -0.31101,0.58053 0,0.30409 0.14858,0.55462 0.43885,0.74295 0.28336,0.18315 0.7153,0.27644 1.29584,0.27644 0.47341,0 0.9451,-0.0673 1.40469,-0.20215 0.45958,-0.13477 0.81723,-0.33691 1.08677,-0.60127 z"/><path inkscape:connector-curvature="0" id="path5724" style="fill:#1d1d1b;fill-opacity:1;fill-rule:nonzero;stroke:none;stroke-width:1.72777832" d="m 207.01432,383.17048 h -1.31485 v -1.29584 h 4.29871 v 1.29584 h -1.31655 v 8.54387 h -1.66731 z"/><path inkscape:connector-curvature="0" id="path5726" style="fill:#1d1d1b;fill-opacity:1;fill-rule:nonzero;stroke:none;stroke-width:1.72777832" d="m 215.06058,391.08025 -1.48589,0.89671 -2.88193,-4.33326 c -0.17451,-0.2488 -0.29718,-0.45096 -0.36456,-0.62027 -0.0673,-0.16242 -0.10018,-0.31792 -0.10018,-0.4665 0,-0.2419 0.10018,-0.43714 0.30237,-0.58573 0.20387,-0.14167 0.45958,-0.21596 0.78441,-0.21596 l 0.29027,0.36974 c 0.21597,0.29027 0.4786,0.43195 0.78959,0.43195 0.34383,0 0.62718,-0.12101 0.85007,-0.37666 0.22978,-0.25052 0.34383,-0.62892 0.34383,-1.12133 0,-0.43195 -0.0673,-0.81033 -0.20216,-1.1196 -0.13476,-0.31791 -0.27644,-0.57363 -0.41812,-0.76886 h -3.28105 v -1.29584 h 6.76251 v 1.29584 h -1.79515 c 0.13477,0.17451 0.27645,0.43712 0.41812,0.78268 0.14168,0.34383 0.21597,0.76195 0.21597,1.24746 0,0.43194 -0.0742,0.81723 -0.21597,1.15415 -0.14167,0.33174 -0.33,0.61509 -0.5667,0.83797 -0.2298,0.22807 -0.49933,0.40431 -0.80342,0.51834 -0.30237,0.12266 -0.61337,0.18314 -0.91745,0.18314 h -0.15551 z"/><path inkscape:connector-curvature="0" id="path5728" style="fill:#1d1d1b;fill-opacity:1;fill-rule:nonzero;stroke:none;stroke-width:1.72777832" d="m 221.41708,386.55693 c -0.1555,-0.21598 -0.37666,-0.40431 -0.66693,-0.55981 -0.29026,-0.1624 -0.61509,-0.24188 -0.97273,-0.24188 -0.52007,0 -0.92436,0.12785 -1.23537,0.39047 -0.30408,0.25744 -0.45267,0.63409 -0.45267,1.14033 0,0.56153 0.15549,0.96583 0.47341,1.21464 0.3179,0.25743 0.73604,0.37837 1.26128,0.37837 0.43886,0 0.81723,-0.13476 1.12823,-0.39738 0.30928,-0.27127 0.46478,-0.60819 0.46478,-1.00557 z m -1.99731,-2.14591 c 0.4855,0 0.88462,0.0673 1.19389,0.20216 0.30409,0.12958 0.56844,0.28507 0.78959,0.45958 v -1.90228 h -5.72931 v -1.29584 h 8.71319 v 1.29584 h -1.31657 v 8.54387 h -1.66731 v -2.07162 c -0.13476,0.12787 -0.35073,0.26262 -0.64791,0.39739 -0.29026,0.13477 -0.68075,0.20215 -1.16625,0.20215 -0.43194,0 -0.84489,-0.0673 -1.23536,-0.19524 -0.39221,-0.12785 -0.73604,-0.31791 -1.03322,-0.56671 -0.29026,-0.25744 -0.52006,-0.57362 -0.69457,-0.952 -0.16931,-0.3853 -0.25744,-0.82416 -0.25744,-1.31657 0,-0.89672 0.28337,-1.59301 0.8449,-2.07852 0.5667,-0.47859 1.29582,-0.72221 2.20637,-0.72221"/><path inkscape:connector-curvature="0" id="path5730" style="fill:#1d1d1b;fill-opacity:1;fill-rule:nonzero;stroke:none;stroke-width:1.72777832" d="m 225.3927,383.17048 h -1.31657 v -1.29584 h 4.30045 v 1.29584 h -1.30967 v 8.54387 h -1.67421 z"/><path inkscape:connector-curvature="0" id="path5732" style="fill:#1d1d1b;fill-opacity:1;fill-rule:nonzero;stroke:none;stroke-width:1.72777832" d="m 230.65032,388.66308 c -0.19524,-0.11398 -0.3922,-0.24879 -0.59434,-0.41121 -0.20217,-0.1555 -0.38357,-0.33692 -0.55291,-0.54079 -0.17622,-0.20215 -0.31099,-0.41813 -0.41811,-0.66001 -0.10887,-0.24362 -0.16242,-0.49933 -0.16242,-0.77059 0,-0.58053 0.18834,-1.05222 0.57363,-1.4306 0.37838,-0.37838 0.96583,-0.56671 1.76233,-0.56671 h 2.03706 v -1.11269 h -5.22999 v -1.29584 h 8.38836 v 1.29584 h -1.48416 v 2.44826 h -3.42101 c -0.29717,0 -0.52696,0.0622 -0.68938,0.19005 -0.1555,0.12786 -0.2367,0.311 -0.2367,0.55289 0,0.16241 0.0484,0.31792 0.13477,0.45959 0.0951,0.14859 0.21078,0.26954 0.34555,0.37147 0.27644,-0.0811 0.53907,-0.13476 0.7896,-0.16931 0.2488,-0.0276 0.48551,-0.0466 0.72912,-0.0466 0.9641,0 1.72087,0.21596 2.25302,0.64099 0.5408,0.43195 0.80341,0.99867 0.80341,1.71397 0,0.70147 -0.27643,1.27509 -0.84315,1.72086 -0.55979,0.45268 -1.38395,0.67556 -2.4638,0.67556 -0.41123,0 -0.81033,-0.0345 -1.18699,-0.10887 -0.37147,-0.0742 -0.72221,-0.16932 -1.04703,-0.29717 -0.33001,-0.12101 -0.6272,-0.26263 -0.88981,-0.41121 -0.27126,-0.15551 -0.50106,-0.31792 -0.70321,-0.4786 l 0.76368,-1.16108 c 0.42503,0.33692 0.8898,0.59955 1.39604,0.79651 0.51316,0.18833 1.04705,0.28336 1.60684,0.28336 0.57363,0 0.99865,-0.0951 1.26819,-0.28336 0.26435,-0.19696 0.39912,-0.45268 0.39912,-0.77058 0,-0.30928 -0.12786,-0.54598 -0.3853,-0.7084 -0.25571,-0.16759 -0.62028,-0.24879 -1.08678,-0.24879 -0.30926,0 -0.61335,0.0259 -0.91053,0.0811 -0.29718,0.0466 -0.6151,0.12786 -0.9451,0.24189"/><path inkscape:connector-curvature="0" id="path5734" style="fill:#6c1b85;fill-opacity:1;fill-rule:nonzero;stroke:none;stroke-width:1.72777832" d="m 142.31075,334.66311 c 0,0 -46.150683,-31.86887 -86.820854,-14.13151 0,0 43.721428,-12.00805 86.820854,27.55634 43.09943,-39.56439 89.30541,-27.55634 89.30541,-27.55634 -45.55807,-19.05394 -89.30541,14.13151 -89.30541,14.13151"/><path inkscape:connector-curvature="0" id="path5736" style="fill:#6c1b85;fill-opacity:1;fill-rule:nonzero;stroke:none;stroke-width:1.72777832" d="m 137.23626,327.01769 c 0,0 -31.71509,-23.5548 -72.850034,-14.44423 L 52.763462,298.75814 c 0,0 51.503338,-4.71164 84.472798,28.25955"/><path inkscape:connector-curvature="0" id="path5738" style="fill:#6c1b85;fill-opacity:1;fill-rule:nonzero;stroke:none;stroke-width:1.72777832" d="m 137.91701,325.06011 c 0,0 -22.73065,-29.80418 -64.865974,-29.71778 L 61.455914,279.3552 c 0,0 51.313286,6.43078 76.461096,45.70491"/><path inkscape:connector-curvature="0" id="path5740" style="fill:#6c1b85;fill-opacity:1;fill-rule:nonzero;stroke:none;stroke-width:1.72777832" d="m 149.86978,327.01769 c 0,0 31.72028,-23.5548 72.85695,-14.44423 l 11.61586,-13.81532 c 0,0 -51.49643,-4.71164 -84.47281,28.25955"/><path inkscape:connector-curvature="0" id="path5742" style="fill:#6c1b85;fill-opacity:1;fill-rule:nonzero;stroke:none;stroke-width:1.72777832" d="m 149.19422,325.06011 c 0,0 22.73238,-29.80418 64.8608,-29.71778 l 11.59339,-15.98713 c 0,0 -51.31329,6.43078 -76.45419,45.70491"/><path inkscape:connector-curvature="0" id="path5744" style="fill:#6c1b85;fill-opacity:1;fill-rule:nonzero;stroke:none;stroke-width:1.72777832" d="m 183.71695,250.05035 c 2.03879,-8.09292 2.6988,-16.88039 1.8971,-25.95122 -9.07083,2.7126 -17.26568,6.77634 -24.20962,11.93203 1.8971,6.18198 2.89575,12.45209 2.94241,18.6479 6.0334,-2.48281 12.56095,-4.02918 19.37011,-4.62871"/><path inkscape:connector-curvature="0" id="path5746" style="fill:#6c1b85;fill-opacity:1;fill-rule:nonzero;stroke:none;stroke-width:1.72777832" d="m 154.87169,287.98026 c -2.26856,0.45786 -4.36091,0.66693 -6.1768,0.74122 1.29584,0.71011 2.79554,1.4185 4.47495,2.04568 8.21385,3.06336 16.66442,2.74027 25.11326,-0.95891 13.70818,-5.99885 25.50546,-17.70973 33.38931,-33.08349 -8.42983,-2.34806 -16.84584,-3.3208 -24.8852,-2.92859 -1.95065,6.64676 -4.81186,12.82875 -8.53694,18.30926 -7.24285,10.67077 -16.71108,14.52371 -23.37858,15.87483"/><path inkscape:connector-curvature="0" id="path5748" style="fill:#6c1b85;fill-opacity:1;fill-rule:nonzero;stroke:none;stroke-width:1.72777832" d="m 125.58586,235.94477 c -6.9163,-5.11596 -15.06968,-9.15204 -24.09387,-11.84564 -0.79651,9.07083 -0.13476,17.8583 1.8971,25.95122 6.75561,0.59263 13.23478,2.11825 19.23535,4.56825 0.0466,-6.20965 1.05913,-12.48492 2.96142,-18.67383"/><path inkscape:connector-curvature="0" id="path5750" style="fill:#6c1b85;fill-opacity:1;fill-rule:nonzero;stroke:none;stroke-width:1.72777832" d="m 108.85578,272.10543 c -3.7199,-5.48742 -6.58111,-11.6625 -8.53868,-18.30926 -8.030712,-0.39221 -16.44672,0.58053 -24.876553,2.92859 7.882131,15.37376 19.681125,27.08464 33.380673,33.08349 8.45748,3.69918 16.90631,4.02227 25.12017,0.95891 1.68113,-0.62718 3.17912,-1.33557 4.47495,-2.04568 -1.8159,-0.0742 -3.90824,-0.28336 -6.17507,-0.74122 -6.66751,-1.35112 -16.14437,-5.20406 -23.38549,-15.87483"/><path inkscape:connector-curvature="0" id="path5752" style="fill:#6c1b85;fill-opacity:1;fill-rule:nonzero;stroke:none;stroke-width:1.72777832" d="m 143.39061,248.6664 c 0.0535,0.0813 0.10887,0.16932 0.16241,0.24879 0.0604,-0.0795 0.10708,-0.16758 0.16932,-0.24879 3.53503,-5.21098 7.9426,-9.92781 13.05855,-14.05203 -2.84737,-8.13265 -7.33614,-16.07006 -13.29525,-23.37165 -5.9401,7.27568 -10.42023,15.17853 -13.27624,23.27662 5.16951,4.15185 9.61854,8.89634 13.18121,14.14706"/><path inkscape:connector-curvature="0" id="path5754" style="fill:#ffad4a;fill-opacity:1;fill-rule:nonzero;stroke:none;stroke-width:1.72777832" d="m 157.04352,274.19087 c 0.0691,7.45191 -5.92456,13.53886 -13.37646,13.60625 -7.45019,0.0604 -13.53888,-5.92456 -13.60626,-13.37645 -0.0604,-7.45019 5.92627,-13.5458 13.37646,-13.60626 7.4519,-0.0673 13.54578,5.92627 13.60626,13.37646"/><path inkscape:connector-curvature="0" id="path5756" style="fill:#1d1d1b;fill-opacity:1;fill-rule:nonzero;stroke:none;stroke-width:1.72777832" d="m 85.240507,363.24574 h 1.119603 v -9.17796 h -1.119603 z m 3.123825,0 h 1.114417 v -9.17796 h -1.114417 z m 7.087346,-3.64389 c 0.05356,0.006 0.08812,0.0138 0.114031,0.0138 h 0.115768 c 0.526969,0 0.971006,-0.12958 1.34248,-0.38529 0.250532,0.16932 0.540797,0.311 0.877712,0.42503 0.330006,0.11577 0.668653,0.17624 0.998654,0.17624 0.689387,0 1.221547,-0.0951 1.599927,-0.29027 v 3.70436 h 1.1196 v -8.09119 h 1.28201 v -0.91918 h -9.818962 v 0.91918 h 3.144555 c 0.16241,0.20215 0.310999,0.45787 0.438854,0.76887 0.134766,0.3179 0.202151,0.68765 0.202151,1.11959 0,0.51316 -0.127856,0.91226 -0.383567,1.19563 -0.257438,0.29026 -0.573623,0.43193 -0.945097,0.43193 -0.190054,0 -0.343826,-0.0276 -0.473409,-0.0882 -0.120944,-0.0535 -0.241886,-0.16241 -0.357653,-0.311 l -0.297175,-0.38357 c -0.20215,0 -0.376655,0.0466 -0.532156,0.1555 -0.148589,0.10708 -0.229798,0.25571 -0.229798,0.45786 0,0.10197 0.02763,0.21598 0.0812,0.33174 0.05357,0.12101 0.155504,0.29027 0.310999,0.51142 l 2.759262,4.043 0.97274,-0.641 z m 2.693608,-0.83105 c -0.183148,-0.0397 -0.357653,-0.0933 -0.533887,-0.1676 0.269535,-0.42503 0.404301,-0.92436 0.404301,-1.5049 0,-0.42502 -0.07948,-0.81723 -0.228067,-1.16798 -0.1555,-0.34383 -0.30409,-0.60818 -0.459584,-0.77577 h 3.172201 v 3.1722 c -0.17624,0.14168 -0.41813,0.26263 -0.708392,0.35766 -0.290269,0.0933 -0.634094,0.14167 -1.033211,0.14167 -0.229794,0 -0.438855,-0.0138 -0.613361,-0.0553 m 5.763864,4.47494 h 1.11269 v -8.09119 h 1.28893 v -0.91918 h -3.69227 v 0.91918 h 1.29065 z m 6.57247,0 h 1.12133 v -8.09119 h 1.14033 v -0.91918 h -1.28892 c -0.0553,-0.121 -0.095,-0.24188 -0.11577,-0.36455 -0.019,-0.11398 -0.0259,-0.23499 -0.0259,-0.35075 0,-0.39738 0.1555,-0.73431 0.46477,-1.00556 0.311,-0.26954 0.79651,-0.4043 1.45134,-0.4043 0.47168,0 0.92436,0.0811 1.37703,0.24879 0.44577,0.16242 0.8639,0.3784 1.25438,0.63582 0.3922,0.25571 0.74294,0.54599 1.06085,0.85698 0.31618,0.31619 0.58053,0.62029 0.78959,0.93128 l 0.18142,0.25571 0.83107,-0.45786 -0.12786,-0.19696 c -0.19006,-0.29718 -0.45959,-0.63411 -0.80342,-1.00558 -0.34556,-0.37147 -0.74295,-0.72221 -1.20944,-1.05912 -0.45786,-0.33001 -0.97793,-0.61337 -1.55846,-0.84315 -0.57363,-0.2298 -1.18699,-0.33866 -1.8349,-0.33866 -0.96583,0 -1.71569,0.19006 -2.24784,0.56844 -0.53388,0.38357 -0.80342,0.90364 -0.80342,1.55846 0,0.18832 0.0346,0.37838 0.0812,0.55289 0.0536,0.17624 0.10711,0.31791 0.16932,0.41812 h -1.18871 v 0.91918 h 1.28201 z m 4.22615,-6.55346 c -0.33865,0.10886 -0.62891,0.27125 -0.88462,0.48031 -0.25054,0.20907 -0.44577,0.46477 -0.58745,0.77578 -0.13477,0.311 -0.20215,0.66866 -0.20215,1.07986 0,0.45268 0.0743,0.84316 0.22288,1.18008 0.1555,0.33864 0.36457,0.62891 0.62719,0.85871 0.25571,0.23497 0.5598,0.4112 0.90363,0.53215 0.34555,0.11577 0.71011,0.17623 1.10059,0.17623 0.54771,0 0.97965,-0.0882 1.29584,-0.25744 0.3179,-0.1745 0.5667,-0.34383 0.73603,-0.51315 v 2.24093 h 1.11269 v -8.09119 h 1.29064 v -0.91918 h -8.00479 v 0.91918 h 5.60146 v 2.24611 c -0.18833,-0.22115 -0.45959,-0.42503 -0.81033,-0.60644 -0.34383,-0.17624 -0.77577,-0.26954 -1.28893,-0.26954 -0.40429,0 -0.76886,0.0535 -1.11268,0.1676 m 3.21194,2.55193 c 0,0.21597 -0.0466,0.42502 -0.14168,0.61336 -0.095,0.19006 -0.22289,0.35764 -0.3922,0.49241 -0.1676,0.14168 -0.36457,0.25052 -0.58054,0.33173 -0.22288,0.0811 -0.45095,0.12101 -0.70148,0.12101 -0.58053,0 -1.04531,-0.12785 -1.38395,-0.38356 -0.34383,-0.25744 -0.51833,-0.71013 -0.51833,-1.35112 0,-0.52525 0.16759,-0.93129 0.50624,-1.18699 0.34382,-0.26435 0.78268,-0.39912 1.32175,-0.39912 0.43194,0 0.81724,0.10887 1.14724,0.33174 0.33173,0.22288 0.58054,0.46478 0.74295,0.72912 z m 8.71318,4.00153 h 1.10059 v -8.09119 h 1.28202 v -0.91918 h -8.97754 v 0.91918 h 3.8875 v 1.14033 h -1.25436 c -0.25053,0 -0.48551,0.0328 -0.70839,0.0951 -0.22289,0.0604 -0.42504,0.15377 -0.59436,0.28854 -0.17623,0.12959 -0.311,0.29026 -0.41121,0.49414 -0.10194,0.19524 -0.14859,0.43194 -0.14859,0.70148 0,0.21598 0.0328,0.40431 0.0933,0.56672 0.0622,0.16241 0.14168,0.30408 0.23671,0.41811 0.095,0.11577 0.19524,0.20216 0.30409,0.27645 0.11403,0.0673 0.21597,0.12958 0.311,0.16241 -0.2367,0.12786 -0.43194,0.29026 -0.58053,0.49933 -0.14859,0.21597 -0.22289,0.47341 -0.22289,0.77577 0,0.36456 0.0743,0.68248 0.21598,0.952 0.14168,0.26954 0.34382,0.49933 0.60645,0.69458 0.26435,0.19006 0.58054,0.33173 0.95201,0.42676 0.37147,0.0933 0.78268,0.14168 1.22845,0.14168 0.60127,0 1.12651,-0.0882 1.5861,-0.27127 0.45268,-0.18142 0.81724,-0.39739 1.09368,-0.65483 z m -0.0207,-8.09119 v 5.44595 c -0.26261,0.36457 -0.61336,0.65484 -1.03839,0.87772 -0.43195,0.22979 -0.93819,0.33692 -1.51872,0.33692 -0.62199,0 -1.09368,-0.0813 -1.4306,-0.25571 -0.33173,-0.16934 -0.49933,-0.47341 -0.49933,-0.89845 0,-0.27644 0.0864,-0.49241 0.26262,-0.65483 0.17451,-0.1555 0.44577,-0.23498 0.81033,-0.23498 h 1.70014 v -0.92608 h -1.98349 c -0.27818,0 -0.50624,-0.0742 -0.68939,-0.21598 -0.18141,-0.14168 -0.26953,-0.35073 -0.26953,-0.61335 0,-0.25744 0.0812,-0.45269 0.2557,-0.58055 0.16933,-0.12785 0.40604,-0.19523 0.70322,-0.19523 h 2.09752 v -2.08543 z m 3.40891,8.09119 h 1.1127 v -8.09119 h 1.28892 v -0.91918 h -3.69055 v 0.91918 h 1.28893 z m 13.63907,-8.09119 v -0.91918 h -8.35553 v 0.91918 h 2.4379 c 0.18141,0.18833 0.32999,0.39739 0.44404,0.62028 0.10887,0.22979 0.16932,0.47859 0.16932,0.74294 0,0.43194 -0.14167,0.75504 -0.41812,0.97101 -0.28336,0.21597 -0.78268,0.32483 -1.49799,0.32483 h -0.41294 c 0.006,0.57362 0.10887,1.08677 0.29718,1.5187 0.19006,0.43886 0.43886,0.80169 0.74295,1.09887 0.30408,0.29027 0.65482,0.51315 1.04531,0.65484 0.3922,0.14168 0.7965,0.21597 1.21635,0.21597 0.51142,0 0.92436,-0.0604 1.22672,-0.18833 0.31101,-0.12101 0.54079,-0.25744 0.7032,-0.39911 v 2.53119 h 1.1127 v -8.09119 z m -3.1791,4.96045 c -0.33692,0.14169 -0.7084,0.21598 -1.11269,0.21598 -0.62719,0 -1.13343,-0.1486 -1.51181,-0.45269 -0.38529,-0.30408 -0.62027,-0.70839 -0.7153,-1.20771 0.74813,0 1.33557,-0.17624 1.74161,-0.54079 0.41121,-0.35766 0.62027,-0.85007 0.62027,-1.47725 0,-0.32482 -0.0673,-0.6151 -0.20215,-0.87081 -0.13477,-0.25571 -0.28337,-0.4665 -0.44578,-0.62718 h 2.40334 v 4.40584 c -0.18315,0.22978 -0.43885,0.41293 -0.77749,0.55461 m 4.17777,3.13074 h 1.12132 v -8.09119 h 1.28202 v -0.91918 h -3.68536 v 0.91918 h 1.28202 z m 6.5811,0 h 1.11442 v -8.09119 h 1.14724 v -0.91918 h -1.28892 c -0.0553,-0.121 -0.0951,-0.24188 -0.11577,-0.36455 -0.0207,-0.11398 -0.0259,-0.23499 -0.0259,-0.35075 0,-0.39738 0.15377,-0.73431 0.46478,-1.00556 0.31099,-0.27644 0.7965,-0.4043 1.45132,-0.4043 0.46478,0 0.92436,0.0811 1.37705,0.24879 0.44576,0.16242 0.86388,0.3784 1.25436,0.63582 0.39221,0.25571 0.74294,0.54599 1.06086,0.85698 0.30927,0.31619 0.57362,0.62029 0.78269,0.93128 l 0.18832,0.25571 0.83106,-0.45786 -0.12958,-0.19696 c -0.19524,-0.29718 -0.45786,-0.63411 -0.8017,-1.00558 -0.34555,-0.37147 -0.74985,-0.72221 -1.20945,-1.05912 -0.45784,-0.33001 -0.98482,-0.61337 -1.55844,-0.84315 -0.58054,-0.2298 -1.18871,-0.33866 -1.83663,-0.33866 -0.9641,0 -1.71395,0.19006 -2.24611,0.56844 -0.53389,0.38357 -0.80343,0.90364 -0.80343,1.55846 0,0.18832 0.0259,0.37838 0.0813,0.55289 0.0535,0.17624 0.10708,0.31791 0.16069,0.41812 h -1.18699 v 0.91918 h 1.28892 z m 4.22442,-6.55346 c -0.33691,0.10886 -0.63409,0.27125 -0.88289,0.48031 -0.25744,0.20907 -0.45268,0.46477 -0.58745,0.77578 -0.14168,0.311 -0.20906,0.66866 -0.20906,1.07986 0,0.45268 0.0813,0.84316 0.2298,1.18008 0.15376,0.33864 0.35765,0.62891 0.62026,0.85871 0.26263,0.23497 0.56672,0.4112 0.91055,0.53215 0.34383,0.11577 0.70838,0.17623 1.10059,0.17623 0.53907,0 0.97793,-0.0882 1.29583,-0.25744 0.31792,-0.1745 0.55981,-0.34383 0.73604,-0.51315 v 2.24093 h 1.11268 v -8.09119 h 1.28893 v -0.91918 h -8.00998 v 0.91918 h 5.60837 v 2.24611 c -0.19006,-0.22115 -0.45959,-0.42503 -0.81033,-0.60644 -0.34383,-0.17624 -0.77578,-0.26954 -1.28893,-0.26954 -0.4043,0 -0.77576,0.0535 -1.11441,0.1676 m 3.21367,2.55193 c 0,0.21597 -0.0484,0.42502 -0.14168,0.61336 -0.0951,0.19006 -0.22979,0.35764 -0.39912,0.49241 -0.16067,0.14168 -0.35765,0.25052 -0.57362,0.33173 -0.22289,0.0811 -0.45095,0.12101 -0.70147,0.12101 -0.58055,0 -1.04532,-0.12785 -1.39086,-0.38356 -0.34383,-0.25744 -0.51316,-0.71013 -0.51316,-1.35112 0,-0.52525 0.16933,-0.93129 0.50624,-1.18699 0.33865,-0.26435 0.78442,-0.39912 1.32348,-0.39912 0.43194,0 0.81032,0.10887 1.14724,0.33174 0.33,0.22288 0.58054,0.46478 0.74295,0.72912 z m 7.92359,-0.54772 h -2.96315 v -3.54194 h 2.96315 z m -2.96315,0.93128 h 2.96315 v 3.61797 h 1.11268 v -8.09119 h 1.28893 v -0.91918 h -8.21385 v 0.91918 h 1.7485 v 3.54194 h -0.16932 c -0.27644,0 -0.49241,0.0744 -0.641,0.22289 -0.14859,0.14859 -0.21597,0.34555 -0.21597,0.59435 0,0.20215 0.0345,0.3853 0.10887,0.55981 0.0811,0.16932 0.18142,0.3179 0.31618,0.43885 0.1365,0.12785 0.28509,0.22288 0.45268,0.29719 0.16241,0.0742 0.34382,0.10887 0.53388,0.10887 0.17451,0 0.32309,-0.0276 0.45096,-0.0882 0.12957,-0.0535 0.21769,-0.11577 0.26434,-0.16932 z m 2.34805,4.65117 c 0.1486,-0.13475 0.31101,-0.23669 0.48034,-0.31099 0.16067,-0.0673 0.34382,-0.10708 0.53215,-0.10708 0.33692,0 0.58053,0.0864 0.74294,0.26954 0.16241,0.17624 0.24189,0.41121 0.24189,0.7153 0,0.36456 -0.12101,0.65482 -0.36283,0.87771 -0.24362,0.21597 -0.59436,0.32309 -1.06777,0.32309 -0.51833,0 -1.01939,-0.13475 -1.48417,-0.41121 -0.4665,-0.27644 -0.93126,-0.68766 -1.40467,-1.22845 l -0.75504,0.64101 c 0.4855,0.62201 1.05222,1.1006 1.70013,1.43751 0.64792,0.33865 1.32348,0.50624 2.01804,0.50624 0.80343,0 1.41851,-0.19523 1.85046,-0.59435 0.43886,-0.39049 0.65482,-0.89673 0.65482,-1.517 0,-0.55461 -0.18313,-1.01939 -0.54079,-1.39085 -0.35764,-0.37149 -0.87081,-0.5529 -1.53254,-0.5529 -0.33692,0 -0.65482,0.0535 -0.95028,0.17451 -0.30409,0.12101 -0.52697,0.26263 -0.68247,0.43886 z m 7.73528,-5.27836 c 0,0.30409 -0.0414,0.55981 -0.12787,0.77059 -0.0882,0.20906 -0.20387,0.38357 -0.35764,0.52524 -0.1555,0.13477 -0.32482,0.23672 -0.52007,0.29719 -0.19696,0.0604 -0.40602,0.0951 -0.62891,0.0951 -0.44403,0 -0.8086,-0.14167 -1.09195,-0.43193 -0.27818,-0.28337 -0.41985,-0.68939 -0.41985,-1.21464 0,-0.25744 0.0484,-0.48031 0.13649,-0.66865 0.0933,-0.19523 0.20907,-0.35074 0.35074,-0.47859 0.14168,-0.13649 0.3041,-0.22288 0.49242,-0.29027 0.18832,-0.0622 0.37838,-0.0882 0.58053,-0.0882 0.30928,0 0.59436,0.0466 0.85007,0.15549 0.25053,0.10018 0.49933,0.28336 0.73604,0.53907 z m 4.46112,-1.92992 c -0.43886,-0.34383 -0.9451,-0.51315 -1.51181,-0.51315 -0.4112,0 -0.7896,0.0813 -1.12824,0.25743 -0.33692,0.1676 -0.58572,0.39739 -0.74813,0.66693 v -2.32732 h 2.05778 v -0.91918 h -8.13956 v 0.91918 h 4.99501 v 2.14591 c -0.43886,-0.49934 -1.0263,-0.74295 -1.76234,-0.74295 -0.33,0 -0.64791,0.0466 -0.95719,0.14858 -0.30407,0.10197 -0.57361,0.25054 -0.7965,0.45269 -0.22979,0.19523 -0.41121,0.44576 -0.55289,0.74812 -0.14341,0.29718 -0.21079,0.64792 -0.21079,1.04703 0,0.45269 0.0742,0.84316 0.21598,1.1749 0.14168,0.33692 0.33864,0.61336 0.58053,0.84316 0.24362,0.22978 0.52006,0.40429 0.83107,0.52006 0.311,0.10708 0.63409,0.16758 0.9641,0.16758 0.36455,0 0.69628,-0.0673 0.99347,-0.19523 0.30236,-0.13477 0.53214,-0.32309 0.69456,-0.55981 v 2.34115 h 1.08677 v -3.85295 c 0,-0.57363 0.14858,-1.0263 0.43886,-1.36322 0.29027,-0.34382 0.72221,-0.51314 1.28892,-0.51314 0.4043,0 0.72912,0.12088 0.99174,0.37147 z m 3.66461,1.08677 v 5.08831 h 1.1127 v -8.09119 h 1.28374 v -0.91918 h -8.24842 v 0.91918 h 5.852 v 2.03014 h -2.42234 c -0.81033,0 -1.43751,0.21597 -1.8902,0.64792 -0.45267,0.43885 -0.68247,1.05394 -0.68247,1.85736 0,0.68075 0.12958,1.32176 0.3922,1.9092 0.26263,0.58053 0.60645,1.17488 1.0384,1.77443 l 0.95892,-0.49933 c -0.39739,-0.59954 -0.7084,-1.14724 -0.92436,-1.63967 -0.20906,-0.4855 -0.31792,-0.99174 -0.31792,-1.50489 0,-0.45959 0.12959,-0.83624 0.3853,-1.12651 0.25571,-0.29718 0.67556,-0.44577 1.2561,-0.44577 z m 10.4617,-3.00288 v -0.91918 h -8.34862 v 0.91918 h 2.42925 c 0.18142,0.18833 0.33,0.39739 0.44577,0.62028 0.11398,0.22979 0.1676,0.47859 0.1676,0.74294 0,0.43194 -0.13477,0.75504 -0.41813,0.97101 -0.28335,0.21597 -0.78269,0.32483 -1.49107,0.32483 h -0.41812 c 0.0115,0.57362 0.10707,1.08677 0.30236,1.5187 0.19005,0.43886 0.43885,0.80169 0.74294,1.09887 0.30409,0.29027 0.65483,0.51315 1.04013,0.65484 0.39048,0.14168 0.7965,0.21597 1.21462,0.21597 0.52006,0 0.92436,-0.0604 1.23537,-0.18833 0.30235,-0.12101 0.53906,-0.25744 0.70147,-0.39911 v 2.53119 h 1.11269 v -8.09119 z m -3.17911,4.96045 c -0.33865,0.14169 -0.70838,0.21598 -1.1075,0.21598 -0.62719,0 -1.13342,-0.1486 -1.51872,-0.45269 -0.37839,-0.30408 -0.61337,-0.70839 -0.71531,-1.20771 0.75678,0 1.33731,-0.17624 1.74851,-0.54079 0.41121,-0.35766 0.61337,-0.85007 0.61337,-1.47725 0,-0.32482 -0.0673,-0.6151 -0.20216,-0.87081 -0.13477,-0.25571 -0.27644,-0.4665 -0.43884,-0.62718 h 2.40333 v 4.40584 c -0.18314,0.22288 -0.44576,0.41293 -0.78268,0.55461 m -3.28105,-8.10673 c 0.13477,-0.0742 0.29026,-0.12786 0.4665,-0.18142 0.1745,-0.0535 0.35765,-0.0742 0.54597,-0.0742 0.25053,0 0.47342,0.0207 0.66175,0.0742 0.18832,0.0535 0.36456,0.13477 0.52005,0.24362 0.1555,0.10708 0.30409,0.24188 0.43886,0.4043 0.12786,0.15549 0.26263,0.33 0.39739,0.53215 l 1.10059,1.6604 h 0.87081 l -1.08678,-2.05778 c -0.32482,-0.62028 -0.7153,-1.10751 -1.16798,-1.45134 -0.45786,-0.35074 -1.03839,-0.52698 -1.73469,-0.52698 -0.26261,0 -0.52524,0.0345 -0.77576,0.0951 -0.25571,0.0604 -0.4596,0.13477 -0.62028,0.22289 z m 11.78517,11.23747 h 1.1127 v -9.17796 h -1.1127 z m 3.11691,0 h 1.11442 v -9.17796 h -1.11442 z"/><path inkscape:connector-curvature="0" id="path5758" style="fill:#000000;fill-opacity:1;fill-rule:nonzero;stroke:none;stroke-width:1.72777832" d="m 20.137826,404.7798 h 1.890189 v 8.98963 h -1.890189 z"/><path inkscape:connector-curvature="0" id="path5760" style="fill:#000000;fill-opacity:1;fill-rule:nonzero;stroke:none;stroke-width:1.72777832" d="m 30.490675,413.76943 h -1.862547 v -4.02227 c 0,-0.4855 -0.09331,-0.85006 -0.269534,-1.10578 -0.183144,-0.25053 -0.459586,-0.37837 -0.836242,-0.37837 -0.526976,0 -0.905358,0.18141 -1.135151,0.53906 -0.234979,0.34554 -0.35074,0.91917 -0.35074,1.72778 v 3.23958 h -1.890189 v -6.85583 h 1.432325 l 0.269534,0.86389 h 0.107131 c 0.196965,-0.32481 0.473411,-0.56671 0.83797,-0.72912 0.376656,-0.17624 0.796505,-0.26953 1.26819,-0.26953 0.789593,0 1.390862,0.21596 1.808985,0.64792 0.411211,0.43194 0.620273,1.05221 0.620273,1.86254 z"/><path inkscape:connector-curvature="0" id="path5762" style="fill:#000000;fill-opacity:1;fill-rule:nonzero;stroke:none;stroke-width:1.72777832" d="m 34.607969,413.90592 c -0.81033,0 -1.451334,-0.311 -1.916107,-0.94509 -0.452679,-0.62891 -0.67556,-1.49971 -0.67556,-2.61932 0,-1.11268 0.229793,-1.98349 0.701478,-2.61931 0.466499,-0.62718 1.114415,-0.94336 1.943749,-0.94336 0.863892,0 1.518715,0.33692 1.971395,0.99865 h 0.05357 c -0.09329,-0.49932 -0.134766,-0.95892 -0.134766,-1.37703 v -2.18738 h 1.890191 v 9.55635 h -1.458247 l -0.350739,-0.88981 h -0.0812 c -0.431942,0.68766 -1.079858,1.0263 -1.94375,1.0263 z m 0.647917,-1.5118 c 0.485503,0 0.837974,-0.13649 1.053943,-0.40603 0.228067,-0.28335 0.357651,-0.76195 0.376656,-1.4306 v -0.18832 c 0,-0.73604 -0.120944,-1.26992 -0.350739,-1.59302 -0.21597,-0.32482 -0.587444,-0.4855 -1.105777,-0.4855 -0.419851,0 -0.742945,0.18142 -0.972738,0.53906 -0.236706,0.36457 -0.35074,0.87771 -0.35074,1.53946 0,0.68764 0.114031,1.2008 0.35074,1.53771 0.229793,0.32483 0.566712,0.48724 0.998655,0.48724 z"/><path inkscape:connector-curvature="0" id="path5764" style="fill:#000000;fill-opacity:1;fill-rule:nonzero;stroke:none;stroke-width:1.72777832" d="m 40.297543,405.13053 c 0,-0.60644 0.336915,-0.91745 1.0263,-0.91745 0.680745,0 1.0263,0.31101 1.0263,0.91745 0,0.29028 -0.09503,0.51315 -0.271262,0.67557 -0.160682,0.16241 -0.418119,0.24362 -0.755038,0.24362 -0.689385,0 -1.0263,-0.30409 -1.0263,-0.91919 z m 1.971394,8.6389 h -1.890189 v -6.85583 h 1.890189 z"/><path inkscape:connector-curvature="0" id="path5766" style="fill:#000000;fill-opacity:1;fill-rule:nonzero;stroke:none;stroke-width:1.72777832" d="m 48.578784,413.76943 -0.35074,-0.94336 h -0.05356 c -0.324823,0.39738 -0.66174,0.67382 -0.998655,0.83624 -0.324825,0.16241 -0.756769,0.24361 -1.295837,0.24361 -0.647917,0 -1.161065,-0.19006 -1.539447,-0.56844 -0.378386,-0.37665 -0.566712,-0.91745 -0.566712,-1.61892 0,-0.73604 0.248798,-1.2751 0.755038,-1.62066 0.499327,-0.33692 1.269917,-0.52524 2.294489,-0.56672 l 1.188713,-0.0259 v -0.32483 c 0,-0.68075 -0.35074,-1.02629 -1.052217,-1.02629 -0.561527,0 -1.209444,0.1624 -1.94375,0.48722 l -0.622,-1.26992 c 0.789594,-0.4112 1.674216,-0.62027 2.645228,-0.62027 0.919177,0 1.620655,0.20907 2.10616,0.62027 0.485507,0.39911 0.729123,0.99867 0.729123,1.80899 v 4.58897 z m -0.566711,-3.18429 -0.701478,0.0259 c -0.561528,0.0207 -0.972739,0.12267 -1.242273,0.29718 -0.255711,0.18313 -0.378382,0.45267 -0.378382,0.81033 0,0.53906 0.297178,0.81033 0.891534,0.81033 0.445767,0 0.796505,-0.12267 1.052214,-0.3784 0.250528,-0.25052 0.378385,-0.58053 0.378385,-0.99865 z"/><path inkscape:connector-curvature="0" id="path5768" style="fill:#000000;fill-opacity:1;fill-rule:nonzero;stroke:none;stroke-width:1.72777832" d="m 58.135125,413.76943 h -1.862547 v -4.02227 c 0,-0.4855 -0.09331,-0.85006 -0.269532,-1.10578 -0.183145,-0.25053 -0.459589,-0.37837 -0.836244,-0.37837 -0.526972,0 -0.905356,0.18141 -1.13515,0.53906 -0.234978,0.34554 -0.350739,0.91917 -0.350739,1.72778 v 3.23958 h -1.89019 v -6.85583 h 1.432328 l 0.269534,0.86389 h 0.107118 c 0.196967,-0.32481 0.473412,-0.56671 0.837972,-0.72912 0.376656,-0.17624 0.796507,-0.26953 1.268189,-0.26953 0.789595,0 1.390863,0.21596 1.808988,0.64792 0.41121,0.43194 0.620269,1.05221 0.620269,1.86254 z"/><path inkscape:connector-curvature="0" id="path5770" style="fill:#000000;fill-opacity:1;fill-rule:nonzero;stroke:none;stroke-width:1.72777832" d="m 63.494694,404.7798 h 1.890187 v 8.98963 h -1.890187 z"/><path inkscape:connector-curvature="0" id="path5772" style="fill:#000000;fill-opacity:1;fill-rule:nonzero;stroke:none;stroke-width:1.72777832" d="m 73.847539,413.76943 h -1.862542 v -4.02227 c 0,-0.4855 -0.09503,-0.85006 -0.269535,-1.10578 -0.183147,-0.25053 -0.459593,-0.37837 -0.837976,-0.37837 -0.525245,0 -0.903624,0.18141 -1.133419,0.53906 -0.236703,0.34554 -0.350739,0.91917 -0.350739,1.72778 v 3.23958 h -1.890191 v -6.85583 h 1.430598 l 0.271263,0.86389 h 0.107118 c 0.195245,-0.32481 0.473417,-0.56671 0.83625,-0.72912 0.378378,-0.17624 0.796502,-0.26953 1.269916,-0.26953 0.789593,0 1.390861,0.21596 1.808985,0.64792 0.41121,0.43194 0.620269,1.05221 0.620269,1.86254 z"/><path inkscape:connector-curvature="0" id="path5774" style="fill:#000000;fill-opacity:1;fill-rule:nonzero;stroke:none;stroke-width:1.72777832" d="m 80.584145,411.71856 c 0,0.7222 -0.243617,1.26819 -0.729119,1.64656 -0.487236,0.36457 -1.228456,0.5408 -2.215012,0.5408 -0.485511,0 -0.91054,-0.0414 -1.26819,-0.10886 -0.364563,-0.0673 -0.694565,-0.16933 -0.998658,-0.29718 v -1.56536 c 0.357655,0.18141 0.75504,0.32309 1.186984,0.43194 0.431949,0.10708 0.817242,0.16242 1.161068,0.16242 0.661743,0 0.998653,-0.19698 0.998653,-0.59436 0,-0.14168 -0.04664,-0.25572 -0.134761,-0.35074 -0.09331,-0.0882 -0.24189,-0.19006 -0.457865,-0.29718 -0.21597,-0.12101 -0.513149,-0.26954 -0.891532,-0.43195 -0.526973,-0.21597 -0.910539,-0.41121 -1.161067,-0.59435 -0.255711,-0.19524 -0.431945,-0.41121 -0.539071,-0.64792 -0.108843,-0.2488 -0.162409,-0.55288 -0.162409,-0.91745 0,-0.60817 0.229794,-1.07986 0.70148,-1.40469 0.466498,-0.33691 1.140333,-0.51141 2.024955,-0.51141 0.824148,0 1.625838,0.18141 2.40334,0.53906 l -0.566709,1.3494 c -0.345558,-0.14168 -0.668649,-0.25571 -0.972742,-0.35074 -0.290265,-0.10708 -0.587444,-0.16241 -0.891533,-0.16241 -0.559799,0 -0.836244,0.15549 -0.836244,0.45958 0,0.16241 0.08812,0.31101 0.26953,0.43195 0.176234,0.12786 0.566714,0.31101 1.161068,0.54079 0.540796,0.21598 0.931273,0.42504 1.188715,0.62027 0.248797,0.18142 0.43194,0.3974 0.539062,0.64792 0.120944,0.25572 0.190057,0.53907 0.190057,0.8639 z"/><path inkscape:connector-curvature="0" id="path5776" style="fill:#000000;fill-opacity:1;fill-rule:nonzero;stroke:none;stroke-width:1.72777832" d="m 84.957158,412.39412 c 0.32309,0 0.708384,-0.0691 1.161062,-0.21597 v 1.40296 c -0.473413,0.21596 -1.040123,0.32481 -1.701861,0.32481 -0.755039,0 -1.309656,-0.19006 -1.646571,-0.56844 -0.343831,-0.39047 -0.513153,-0.97101 -0.513153,-1.72777 v -3.29315 H 81.36683 v -0.81033 l 1.024569,-0.62027 0.540798,-1.45825 h 1.186983 v 1.48589 h 1.943752 v 1.40296 H 84.11918 v 3.29315 c 0,0.27126 0.06738,0.47341 0.21597,0.59435 0.162415,0.12786 0.364564,0.19006 0.622008,0.19006 z"/><path inkscape:connector-curvature="0" id="path5778" style="fill:#000000;fill-opacity:1;fill-rule:nonzero;stroke:none;stroke-width:1.72777832" d="m 87.407142,405.13053 c 0,-0.60644 0.336916,-0.91745 1.026302,-0.91745 0.680742,0 1.024571,0.31101 1.024571,0.91745 0,0.29028 -0.09331,0.51315 -0.26953,0.67557 -0.162414,0.16241 -0.418124,0.24362 -0.755041,0.24362 -0.689386,0 -1.026302,-0.30409 -1.026302,-0.91919 z m 1.969669,8.6389 h -1.888459 v -6.85583 h 1.888459 z"/><path inkscape:connector-curvature="0" id="path5780" style="fill:#000000;fill-opacity:1;fill-rule:nonzero;stroke:none;stroke-width:1.72777832" d="m 94.23705,412.39412 c 0.323091,0 0.708389,-0.0691 1.161067,-0.21597 v 1.40296 c -0.473412,0.21596 -1.040126,0.32481 -1.70186,0.32481 -0.75504,0 -1.30793,-0.19006 -1.646572,-0.56844 -0.343829,-0.39047 -0.513153,-0.97101 -0.513153,-1.72777 v -3.29315 h -0.889805 v -0.81033 l 1.024574,-0.62027 0.540793,-1.45825 h 1.186985 v 1.48589 h 1.945478 v 1.40296 h -1.945478 v 3.29315 c 0,0.27126 0.06912,0.47341 0.217701,0.59435 0.160682,0.12786 0.362831,0.19006 0.62027,0.19006 z"/><path inkscape:connector-curvature="0" id="path5782" style="fill:#000000;fill-opacity:1;fill-rule:nonzero;stroke:none;stroke-width:1.72777832" d="m 101.6544,413.76943 -0.26953,-0.88981 h -0.0812 c -0.21598,0.32311 -0.50624,0.58053 -0.8639,0.75504 -0.36456,0.17623 -0.782676,0.27126 -1.269913,0.27126 -0.796504,0 -1.396045,-0.21597 -1.808986,-0.64792 -0.418121,-0.43193 -0.62027,-1.06085 -0.62027,-1.89018 v -4.45422 h 1.862542 v 3.99463 c 0,0.50624 0.08812,0.88462 0.269535,1.13342 0.176233,0.23672 0.459593,0.35247 0.837976,0.35247 0.539056,0 0.917446,-0.16932 1.133416,-0.51315 0.2298,-0.35766 0.35074,-0.9451 0.35074,-1.75543 v -3.21194 h 1.89019 v 6.85583 z"/><path inkscape:connector-curvature="0" id="path5784" style="fill:#000000;fill-opacity:1;fill-rule:nonzero;stroke:none;stroke-width:1.72777832" d="m 107.95734,412.39412 c 0.32482,0 0.70839,-0.0691 1.16106,-0.21597 v 1.40296 c -0.47168,0.21596 -1.03839,0.32481 -1.70013,0.32481 -0.75676,0 -1.30965,-0.19006 -1.64657,-0.56844 -0.34556,-0.39047 -0.51315,-0.97101 -0.51315,-1.72777 v -3.29315 h -0.89153 v -0.81033 l 1.02629,-0.62027 0.53907,-1.45825 h 1.18871 v 1.48589 h 1.94375 v 1.40296 h -1.94375 v 3.29315 c 0,0.27126 0.0674,0.47341 0.21598,0.59435 0.16241,0.12786 0.36456,0.19006 0.62027,0.19006 z"/><path inkscape:connector-curvature="0" id="path5786" style="fill:#000000;fill-opacity:1;fill-rule:nonzero;stroke:none;stroke-width:1.72777832" d="m 113.35664,408.1006 c -0.39739,0 -0.7153,0.12784 -0.94509,0.37837 -0.21597,0.25571 -0.34383,0.61337 -0.37666,1.07987 h 2.61759 c 0,-0.4665 -0.12094,-0.82416 -0.35074,-1.07987 -0.23671,-0.25053 -0.55289,-0.37837 -0.9451,-0.37837 z m 0.27127,5.80532 c -1.12133,0 -1.99213,-0.30409 -2.61932,-0.91917 -0.61508,-0.60645 -0.91745,-1.47035 -0.91745,-2.59167 0,-1.14725 0.28336,-2.03706 0.86389,-2.67288 0.57363,-0.62718 1.36322,-0.94336 2.3757,-0.94336 0.97101,0 1.72777,0.28335 2.26684,0.83625 0.5408,0.53906 0.81033,1.29582 0.81033,2.26684 v 0.91917 h -4.4283 c 0.0138,0.53908 0.16933,0.9641 0.4596,1.26819 0.30408,0.29028 0.72912,0.43195 1.26818,0.43195 0.41294,0 0.79651,-0.0397 1.16107,-0.13477 0.37838,-0.0882 0.76368,-0.22287 1.16107,-0.4043 v 1.45652 c -0.3231,0.16242 -0.67384,0.28336 -1.05222,0.35074 -0.37838,0.0882 -0.83106,0.13649 -1.34939,0.13649 z"/><path inkscape:connector-curvature="0" id="path5788" style="fill:#000000;fill-opacity:1;fill-rule:nonzero;stroke:none;stroke-width:1.72777832" d="m 122.71084,410.31388 c 0,0.68938 0.10886,1.20943 0.32482,1.56709 0.22979,0.34383 0.59435,0.51315 1.07986,0.51315 0.49933,0 0.86388,-0.16932 1.07986,-0.51315 0.2298,-0.35766 0.35074,-0.87771 0.35074,-1.56709 0,-0.66001 -0.12101,-1.16627 -0.35074,-1.51181 -0.21598,-0.33693 -0.58053,-0.51142 -1.07986,-0.51142 -0.50624,0 -0.86389,0.17449 -1.07986,0.51142 -0.21597,0.32482 -0.32482,0.83106 -0.32482,1.51181 z m 4.75139,0 c 0,1.12133 -0.29718,1.99904 -0.88981,2.64695 -0.59435,0.63409 -1.41851,0.94509 -2.4569,0.94509 -0.66865,0 -1.25609,-0.14167 -1.75543,-0.43194 -0.50623,-0.30409 -0.8898,-0.72913 -1.16106,-1.26992 -0.26953,-0.53906 -0.4043,-1.16797 -0.4043,-1.89018 0,-1.1127 0.28336,-1.97658 0.86389,-2.59168 0.59435,-0.62718 1.41678,-0.94336 2.48281,-0.94336 0.66175,0 1.24919,0.14858 1.75543,0.43194 0.49933,0.29026 0.89154,0.70148 1.16106,1.24055 0.26954,0.52698 0.40431,1.14725 0.40431,1.86255 z"/><path inkscape:connector-curvature="0" id="path5790" style="fill:#000000;fill-opacity:1;fill-rule:nonzero;stroke:none;stroke-width:1.72777832" d="m 132.78723,408.31656 h -1.61892 v 5.45287 h -1.86254 v -5.45287 h -1.05395 v -0.91745 l 1.05395,-0.48551 v -0.51314 c 0,-0.7896 0.18832,-1.36322 0.56671,-1.72778 0.37838,-0.35765 0.98483,-0.5408 1.8349,-0.5408 0.64792,0 1.22154,0.10197 1.72777,0.29718 l -0.45786,1.37704 c -0.37838,-0.10708 -0.72912,-0.16242 -1.05394,-0.16242 -0.26954,0 -0.47169,0.0813 -0.59263,0.24363 -0.10887,0.14858 -0.16241,0.34382 -0.16241,0.59435 v 0.43194 h 1.61892 z"/><path inkscape:connector-curvature="0" id="path5792" style="fill:#000000;fill-opacity:1;fill-rule:nonzero;stroke:none;stroke-width:1.72777832" d="m 140.72465,413.76943 h -1.89019 v -7.39662 h -2.45518 v -1.59301 h 6.80227 v 1.59301 h -2.4569 z"/><path inkscape:connector-curvature="0" id="path5794" style="fill:#000000;fill-opacity:1;fill-rule:nonzero;stroke:none;stroke-width:1.72777832" d="m 147.26429,408.1006 c -0.39739,0 -0.7153,0.12784 -0.94509,0.37837 -0.21597,0.25571 -0.34383,0.61337 -0.37666,1.07987 h 2.61758 c 0,-0.4665 -0.12088,-0.82416 -0.35074,-1.07987 -0.23671,-0.25053 -0.55289,-0.37837 -0.94509,-0.37837 z m 0.27126,5.80532 c -1.12133,0 -1.99213,-0.30409 -2.61931,-0.91917 -0.6151,-0.60645 -0.91745,-1.47035 -0.91745,-2.59167 0,-1.14725 0.28335,-2.03706 0.86388,-2.67288 0.57363,-0.62718 1.36322,-0.94336 2.3757,-0.94336 0.97101,0 1.72778,0.28335 2.26684,0.83625 0.54081,0.53906 0.81033,1.29582 0.81033,2.26684 v 0.91917 h -4.42829 c 0.0138,0.53908 0.16932,0.9641 0.45959,1.26819 0.30409,0.29028 0.72912,0.43195 1.26819,0.43195 0.41295,0 0.7965,-0.0397 1.16107,-0.13477 0.37838,-0.0882 0.76368,-0.22287 1.16106,-0.4043 v 1.45652 c -0.32309,0.16242 -0.67383,0.28336 -1.05221,0.35074 -0.37839,0.0882 -0.83106,0.13649 -1.3494,0.13649 z"/><path inkscape:connector-curvature="0" id="path5796" style="fill:#000000;fill-opacity:1;fill-rule:nonzero;stroke:none;stroke-width:1.72777832" d="m 154.64882,413.90592 c -2.1459,0 -3.21368,-1.17488 -3.21368,-3.53675 0,-1.16799 0.28336,-2.05952 0.86389,-2.67288 0.59436,-0.60818 1.4306,-0.91745 2.51046,-0.91745 0.7896,0 1.49972,0.15377 2.13381,0.45786 l -0.54079,1.45824 c -0.30928,-0.12101 -0.58572,-0.22287 -0.83624,-0.29718 -0.25572,-0.0673 -0.50624,-0.10708 -0.75678,-0.10708 -0.971,0 -1.45651,0.69458 -1.45651,2.07852 0,1.33557 0.48551,1.99731 1.45651,1.99731 0.35766,0 0.68939,-0.0415 1.00039,-0.13476 0.30237,-0.0882 0.60646,-0.24362 0.91745,-0.4596 v 1.62066 c -0.31099,0.18142 -0.61508,0.30928 -0.91745,0.37666 -0.311,0.0882 -0.69629,0.13649 -1.16106,0.13649 z"/><path inkscape:connector-curvature="0" id="path5798" style="fill:#000000;fill-opacity:1;fill-rule:nonzero;stroke:none;stroke-width:1.72777832" d="m 164.6371,413.76943 h -1.86255 v -4.02227 c 0,-0.98484 -0.37147,-1.48415 -1.1075,-1.48415 -0.52524,0 -0.90363,0.18141 -1.13342,0.53906 -0.2367,0.36456 -0.35075,0.93818 -0.35075,1.72778 v 3.23958 h -1.89018 v -9.55635 h 1.89018 v 1.94377 c 0,0.14858 -0.0207,0.50624 -0.0535,1.07985 l -0.0276,0.54079 h 0.0813 c 0.41121,-0.66173 1.07986,-0.99865 1.99732,-0.99865 0.81033,0 1.41677,0.21596 1.83663,0.64792 0.41121,0.43194 0.62027,1.05221 0.62027,1.86254 z"/><path inkscape:connector-curvature="0" id="path5800" style="fill:#000000;fill-opacity:1;fill-rule:nonzero;stroke:none;stroke-width:1.72777832" d="m 172.91143,413.76943 h -1.86255 v -4.02227 c 0,-0.4855 -0.0951,-0.85006 -0.26952,-1.10578 -0.18315,-0.25053 -0.4596,-0.37837 -0.83798,-0.37837 -0.52524,0 -0.90363,0.18141 -1.13342,0.53906 -0.23672,0.34554 -0.35075,0.91917 -0.35075,1.72778 v 3.23958 h -1.89018 v -6.85583 h 1.4306 l 0.27126,0.86389 h 0.10708 c 0.19523,-0.32481 0.47169,-0.56671 0.83626,-0.72912 0.37838,-0.17624 0.79649,-0.26953 1.26991,-0.26953 0.78959,0 1.38912,0.21596 1.80898,0.64792 0.41121,0.43194 0.62027,1.05221 0.62027,1.86254 z"/><path inkscape:connector-curvature="0" id="path5802" style="fill:#000000;fill-opacity:1;fill-rule:nonzero;stroke:none;stroke-width:1.72777832" d="m 176.35316,410.31388 c 0,0.68938 0.10887,1.20943 0.32483,1.56709 0.2298,0.34383 0.59263,0.51315 1.07986,0.51315 0.49933,0 0.86389,-0.16932 1.07986,-0.51315 0.22979,-0.35766 0.35073,-0.87771 0.35073,-1.56709 0,-0.66001 -0.121,-1.16627 -0.35073,-1.51181 -0.21597,-0.33693 -0.58053,-0.51142 -1.07986,-0.51142 -0.50624,0 -0.86389,0.17449 -1.07986,0.51142 -0.21597,0.32482 -0.32483,0.83106 -0.32483,1.51181 z m 4.7514,0 c 0,1.12133 -0.29718,1.99904 -0.88981,2.64695 -0.59436,0.63409 -1.4185,0.94509 -2.4569,0.94509 -0.66865,0 -1.2561,-0.14167 -1.75542,-0.43194 -0.50624,-0.30409 -0.89153,-0.72913 -1.16107,-1.26992 -0.26953,-0.53906 -0.4043,-1.16797 -0.4043,-1.89018 0,-1.1127 0.28335,-1.97658 0.86388,-2.59168 0.59436,-0.62718 1.41679,-0.94336 2.48283,-0.94336 0.66174,0 1.24918,0.14858 1.75542,0.43194 0.49932,0.29026 0.89153,0.70148 1.16107,1.24055 0.26953,0.52698 0.4043,1.14725 0.4043,1.86255 z"/><path inkscape:connector-curvature="0" id="path5804" style="fill:#000000;fill-opacity:1;fill-rule:nonzero;stroke:none;stroke-width:1.72777832" d="m 182.62327,404.21308 h 1.89019 v 9.55635 h -1.89019 z"/><path inkscape:connector-curvature="0" id="path5806" style="fill:#000000;fill-opacity:1;fill-rule:nonzero;stroke:none;stroke-width:1.72777832" d="m 187.96901,410.31388 c 0,0.68938 0.10708,1.20943 0.32311,1.56709 0.22978,0.34383 0.59435,0.51315 1.07985,0.51315 0.49933,0 0.86389,-0.16932 1.07986,-0.51315 0.2298,-0.35766 0.35247,-0.87771 0.35247,-1.56709 0,-0.66001 -0.12267,-1.16627 -0.35247,-1.51181 -0.21597,-0.33693 -0.58053,-0.51142 -1.07986,-0.51142 -0.50624,0 -0.86389,0.17449 -1.07985,0.51142 -0.21598,0.32482 -0.32311,0.83106 -0.32311,1.51181 z m 4.7514,0 c 0,1.12133 -0.29718,1.99904 -0.89153,2.64695 -0.59263,0.63409 -1.41679,0.94509 -2.45691,0.94509 -0.66692,0 -1.25436,-0.14167 -1.75369,-0.43194 -0.50624,-0.30409 -0.89153,-0.72913 -1.16107,-1.26992 -0.26953,-0.53906 -0.4043,-1.16797 -0.4043,-1.89018 0,-1.1127 0.28336,-1.97658 0.86389,-2.59168 0.59263,-0.62718 1.41678,-0.94336 2.48281,-0.94336 0.66175,0 1.24919,0.14858 1.75543,0.43194 0.49933,0.29026 0.88981,0.70148 1.15934,1.24055 0.27126,0.52698 0.40603,1.14725 0.40603,1.86255 z"/><path inkscape:connector-curvature="0" id="path5808" style="fill:#000000;fill-opacity:1;fill-rule:nonzero;stroke:none;stroke-width:1.72777832" d="m 200.23279,406.9136 v 0.9451 l -1.07986,0.26954 c 0.19524,0.30926 0.29544,0.64791 0.29544,1.02629 0,0.74122 -0.26261,1.31484 -0.78268,1.72777 -0.50623,0.41814 -1.21462,0.62029 -2.13208,0.62029 l -0.32482,-0.0276 -0.29545,-0.0259 c -0.18314,0.14859 -0.27125,0.30928 -0.27125,0.48551 0,0.26953 0.33864,0.4043 1.02629,0.4043 h 1.16107 c 0.75504,0 1.32866,0.1624 1.72778,0.48723 0.39047,0.3231 0.59435,0.8017 0.59435,1.4306 0,0.8086 -0.34555,1.4306 -1.0263,1.86255 -0.66865,0.44576 -1.62066,0.67384 -2.8612,0.67384 -0.95891,0 -1.69495,-0.17451 -2.215,-0.51143 -0.50625,-0.32482 -0.75505,-0.79651 -0.75505,-1.40469 0,-0.41812 0.121,-0.76885 0.37839,-1.05221 0.26953,-0.27126 0.65482,-0.45959 1.16106,-0.56671 -0.20388,-0.0882 -0.37147,-0.22289 -0.51315,-0.40603 -0.14858,-0.1745 -0.21597,-0.37838 -0.21597,-0.59436 0,-0.26952 0.0673,-0.4855 0.21597,-0.64791 0.16068,-0.17451 0.38357,-0.35074 0.67384,-0.51142 -0.36457,-0.16241 -0.64793,-0.41294 -0.8639,-0.75677 -0.21596,-0.33691 -0.32309,-0.74295 -0.32309,-1.21462 0,-0.75678 0.2419,-1.3304 0.72912,-1.72778 0.49933,-0.41122 1.2008,-0.62028 2.10444,-0.62028 0.19696,0 0.41985,0.019 0.67556,0.0535 0.26954,0.0397 0.43886,0.0673 0.51315,0.0813 z m -5.31983,7.82857 c 0,0.2488 0.12267,0.44576 0.37838,0.59435 0.25053,0.16069 0.60127,0.24189 1.05395,0.24189 0.66001,0 1.18698,-0.10018 1.56536,-0.29718 0.37839,-0.18141 0.56671,-0.43193 0.56671,-0.75504 0,-0.25571 -0.12088,-0.43194 -0.35073,-0.54079 -0.21598,-0.0933 -0.55981,-0.13477 -1.0263,-0.13477 h -0.97102 c -0.34555,0 -0.63582,0.0811 -0.86388,0.24362 -0.23671,0.16242 -0.35247,0.37839 -0.35247,0.64792 z m 0.7032,-5.58764 c 0,0.37665 0.0813,0.67383 0.24189,0.88981 0.17623,0.21597 0.43886,0.32483 0.78269,0.32483 0.33864,0 0.59435,-0.10887 0.75676,-0.32483 0.17451,-0.21598 0.26954,-0.51316 0.26954,-0.88981 0,-0.82415 -0.34383,-1.24227 -1.0263,-1.24227 -0.68766,0 -1.02458,0.41812 -1.02458,1.24227 z"/><path inkscape:connector-curvature="0" id="path5810" style="fill:#000000;fill-opacity:1;fill-rule:nonzero;stroke:none;stroke-width:1.72777832" d="m 200.36064,406.9136 h 2.05087 l 1.29585,3.85986 c 0.10886,0.32483 0.17622,0.72221 0.21596,1.18871 h 0.0535 c 0.0345,-0.43194 0.12267,-0.82414 0.27126,-1.18871 l 1.26819,-3.85986 h 1.99732 l -2.91477,7.74736 c -0.25745,0.70148 -0.63409,1.22846 -1.13343,1.59301 -0.48722,0.35766 -1.06777,0.53907 -1.72778,0.53907 -0.32481,0 -0.64099,-0.0397 -0.94508,-0.10708 v -1.48417 c 0.21597,0.0535 0.45786,0.0795 0.72911,0.0795 0.33692,0 0.62719,-0.10708 0.86389,-0.32309 0.2488,-0.20215 0.44405,-0.49933 0.59264,-0.89153 l 0.10886,-0.35075 z"/><path inkscape:connector-curvature="0" id="path5812" style="fill:#000000;fill-opacity:1;fill-rule:nonzero;stroke:none;stroke-width:1.72777832" d="m 219.35929,409.18045 c 0,1.49798 -0.42503,2.64005 -1.26991,3.42964 -0.85007,0.77577 -2.0647,1.15934 -3.64389,1.15934 h -2.53811 v -8.98963 h 2.80765 c 1.47206,0 2.61931,0.39221 3.42964,1.16106 0.80859,0.77578 1.21462,1.85563 1.21462,3.23959 z m -1.97139,0.0535 c 0,-1.92301 -0.85698,-2.88711 -2.56402,-2.88711 h -1.0263 v 5.85717 h 0.83624 c 1.83662,0 2.75408,-0.98483 2.75408,-2.97006 z"/><path inkscape:connector-curvature="0" id="path5814" style="fill:#000000;fill-opacity:1;fill-rule:nonzero;stroke:none;stroke-width:1.72777832" d="m 227.39,413.76943 h -1.86254 v -4.02227 c 0,-0.98484 -0.37146,-1.48415 -1.10578,-1.48415 -0.52698,0 -0.90534,0.18141 -1.13514,0.53906 -0.23499,0.36456 -0.35075,0.93818 -0.35075,1.72778 v 3.23958 h -1.89018 v -9.55635 h 1.89018 v 1.94377 c 0,0.14858 -0.0207,0.50624 -0.0535,1.07985 l -0.0276,0.54079 h 0.0811 c 0.41121,-0.66173 1.07986,-0.99865 1.99731,-0.99865 0.81033,0 1.41851,0.21596 1.83663,0.64792 0.41121,0.43194 0.62027,1.05221 0.62027,1.86254 z"/><path inkscape:connector-curvature="0" id="path5816" style="fill:#000000;fill-opacity:1;fill-rule:nonzero;stroke:none;stroke-width:1.72777832" d="m 233.69466,413.76943 -0.35073,-0.94336 h -0.0553 c -0.32309,0.39738 -0.66,0.67382 -0.99865,0.83624 -0.3231,0.16241 -0.75504,0.24361 -1.29584,0.24361 -0.64791,0 -1.16106,-0.19006 -1.53772,-0.56844 -0.37838,-0.37665 -0.56844,-0.91745 -0.56844,-1.61892 0,-0.73604 0.25053,-1.2751 0.75677,-1.62066 0.49933,-0.33692 1.26819,-0.52524 2.29449,-0.56672 l 1.18871,-0.0259 v -0.32483 c 0,-0.68075 -0.35247,-1.02629 -1.05395,-1.02629 -0.5598,0 -1.20772,0.1624 -1.94374,0.48722 l -0.62028,-1.26992 c 0.7896,-0.4112 1.67422,-0.62027 2.64523,-0.62027 0.91745,0 1.62065,0.20907 2.10616,0.62027 0.4855,0.39911 0.72913,0.99867 0.72913,1.80899 v 4.58897 z m -0.5667,-3.18429 -0.70321,0.0259 c -0.55979,0.0207 -0.97102,0.12267 -1.24054,0.29718 -0.25744,0.18313 -0.37838,0.45267 -0.37838,0.81033 0,0.53906 0.29717,0.81033 0.88981,0.81033 0.44576,0 0.7965,-0.12267 1.05394,-0.3784 0.2488,-0.25052 0.37838,-0.58053 0.37838,-0.99865 z"/><path inkscape:connector-curvature="0" id="path5818" style="fill:#000000;fill-opacity:1;fill-rule:nonzero;stroke:none;stroke-width:1.72777832" d="m 240.74054,406.77884 c 0.2488,0 0.46478,0.019 0.64792,0.0535 l -0.13475,1.75371 c -0.16242,-0.0328 -0.35075,-0.0535 -0.56672,-0.0535 -0.59436,0 -1.06777,0.1555 -1.40469,0.45958 -0.32309,0.30928 -0.48551,0.74123 -0.48551,1.29584 v 3.48147 h -1.89018 v -6.85583 h 1.43061 l 0.26952,1.13344 h 0.10887 c 0.19525,-0.3784 0.47169,-0.68248 0.83625,-0.91746 0.37839,-0.22979 0.77059,-0.35074 1.18871,-0.35074 z"/><path inkscape:connector-curvature="0" id="path5820" style="fill:#000000;fill-opacity:1;fill-rule:nonzero;stroke:none;stroke-width:1.72777832" d="m 248.29959,413.76943 -0.54081,-2.40161 -0.70147,-3.02361 h -0.0535 l -1.24227,5.42522 h -2.02496 l -1.94374,-6.85583 h 1.86253 l 0.78269,3.02362 c 0.12267,0.5598 0.25053,1.31484 0.37838,2.26684 h 0.0535 c 0.0138,-0.32309 0.0882,-0.81552 0.21597,-1.48416 l 0.0811,-0.51316 0.86389,-3.29314 h 2.05261 l 0.81031,3.29314 c 0.0115,0.0951 0.0397,0.2298 0.0795,0.40431 0.0345,0.16241 0.0622,0.34556 0.0811,0.54079 0.0345,0.20215 0.0622,0.3974 0.0813,0.59436 0.0345,0.18142 0.0604,0.33692 0.0811,0.45786 h 0.0276 c 0.0328,-0.30409 0.0933,-0.70839 0.18834,-1.21462 0.10887,-0.52007 0.17623,-0.87081 0.21597,-1.05222 l 0.81032,-3.02362 h 1.83491 l -1.96967,6.85583 z"/><path inkscape:connector-curvature="0" id="path5822" style="fill:#000000;fill-opacity:1;fill-rule:nonzero;stroke:none;stroke-width:1.72777832" d="m 257.75571,413.76943 -0.35246,-0.94336 h -0.0535 c -0.3231,0.39738 -0.66174,0.67382 -0.99866,0.83624 -0.3231,0.16241 -0.75504,0.24361 -1.29584,0.24361 -0.64791,0 -1.16106,-0.19006 -1.53944,-0.56844 -0.37666,-0.37665 -0.56672,-0.91745 -0.56672,-1.61892 0,-0.73604 0.25054,-1.2751 0.75678,-1.62066 0.49931,-0.33692 1.26818,-0.52524 2.29448,-0.56672 l 1.18699,-0.0259 v -0.32483 c 0,-0.68075 -0.35075,-1.02629 -1.05222,-1.02629 -0.5598,0 -1.20772,0.1624 -1.94375,0.48722 l -0.62027,-1.26992 c 0.78959,-0.4112 1.67249,-0.62027 2.64522,-0.62027 0.91745,0 1.61893,0.20907 2.10616,0.62027 0.48552,0.39911 0.72913,0.99867 0.72913,1.80899 v 4.58897 z m -0.56844,-3.18429 -0.70147,0.0259 c -0.55981,0.0207 -0.97101,0.12267 -1.24228,0.29718 -0.25571,0.18313 -0.37666,0.45267 -0.37666,0.81033 0,0.53906 0.29718,0.81033 0.88981,0.81033 0.44576,0 0.79651,-0.12267 1.05394,-0.3784 0.24881,-0.25052 0.37666,-0.58053 0.37666,-0.99865 z"/><path inkscape:connector-curvature="0" id="path5824" style="fill:#000000;fill-opacity:1;fill-rule:nonzero;stroke:none;stroke-width:1.72777832" d="m 263.15328,413.90592 c -0.80859,0 -1.4496,-0.311 -1.9161,-0.94509 -0.45267,-0.62891 -0.67556,-1.49971 -0.67556,-2.61932 0,-1.11268 0.22979,-1.98349 0.70321,-2.61931 0.46477,-0.62718 1.11269,-0.94336 1.94376,-0.94336 0.86388,0 1.51871,0.33692 1.96966,0.99865 h 0.0553 c -0.0951,-0.49932 -0.13477,-0.95892 -0.13477,-1.37703 v -2.18738 h 1.88846 v 9.55635 h -1.45651 l -0.35247,-0.88981 h -0.0795 c -0.43195,0.68766 -1.08159,1.0263 -1.94549,1.0263 z m 0.64965,-1.5118 c 0.48551,0 0.83624,-0.13649 1.05222,-0.40603 0.22979,-0.28335 0.35765,-0.76195 0.37839,-1.4306 v -0.18832 c 0,-0.73604 -0.12267,-1.26992 -0.35247,-1.59302 -0.21425,-0.32482 -0.58572,-0.4855 -1.10578,-0.4855 -0.41812,0 -0.74295,0.18142 -0.97274,0.53906 -0.23497,0.36457 -0.35074,0.87771 -0.35074,1.53946 0,0.68764 0.11577,1.2008 0.35074,1.53771 0.22979,0.32483 0.56844,0.48724 1.00038,0.48724 z"/></g></g></svg>